<?xml version="1.0" standalone="no"?>
<!DOCTYPE svg PUBLIC "-//W3C//DTD SVG 1.1//EN" "http://www.w3.org/Graphics/SVG/1.1/DTD/svg11.dtd" >
<!--
2013-9-30: Created.
-->
<svg>
<metadata>
Created by iconfont
</metadata>
<defs>

<font id="iconfont" horiz-adv-x="1024" >
  <font-face
    font-family="iconfont"
    font-weight="500"
    font-stretch="normal"
    units-per-em="1024"
    ascent="896"
    descent="-128"
  />
    <missing-glyph />
    
    <glyph glyph-name="add-o" unicode="&#59856;" d="M1004.8 362.667H21.333a19.12 19.12 0 0 0-19.2 19.2V384c0 12.8 8.534 21.333 19.2 21.333H1004.8a19.12 19.12 0 0 0 19.2-19.2V384c2.133-12.8-8.533-21.333-19.2-21.333zM535.467 874.667v-981.334c0-10.666-8.534-21.333-21.334-21.333-10.666 0-21.333 10.667-21.333 21.333V874.667C492.8 885.333 501.333 896 514.133 896c10.667 0 21.334-8.533 21.334-21.333z"  horiz-adv-x="1024" />

    
    <glyph glyph-name="add-time-o" unicode="&#59857;" d="M764.586667 329.386667H259.413333c-30.72 0-54.613333 23.893333-54.613333 54.613333 0 30.72 23.893333 54.613333 54.613333 54.613333h508.586667c30.72 0 54.613333-23.893333 54.613333-54.613333-3.413333-30.72-27.306667-54.613333-58.026666-54.613333zM457.386667 128V636.586667c0 30.72 23.893333 54.613333 54.613333 54.613333 30.72 0 54.613333-23.893333 54.613333-54.613333v-508.586667c0-30.72-23.893333-54.613333-54.613333-54.613333-30.72 3.413333-54.613333 27.306667-54.613333 54.613333z"  horiz-adv-x="1024" />

    
    <glyph glyph-name="add-shelf-o" unicode="&#59858;" d="M295.751553 673.391304h413.416149-413.416149z m457.937888-101.763975c-19.080745 0-38.161491 19.080745-38.161491 38.161491 0 114.484472-95.403727 209.888199-209.888198 209.888199S302.111801 724.273292 302.111801 609.78882c0-19.080745-19.080745-38.161491-38.16149-38.161491s-38.161491 19.080745-38.161491 38.161491C225.78882 768.795031 352.993789 896 505.639752 896c159.006211 0 286.21118-127.204969 286.21118-286.21118 0-19.080745-19.080745-38.161491-38.161491-38.161491zM753.689441 673.391304h57.242236c44.521739 0 89.043478-31.801242 95.403727-76.322981l89.043478-604.223603c6.360248-63.602484-31.801242-120.84472-95.403727-120.84472H124.024845c-57.242236 0-101.763975 50.881988-95.403727 120.84472l89.043478 604.223603c6.360248 44.521739 50.881988 76.322981 95.403727 76.322981h540.621118zM397.515528 539.826087v-248.049689H193.987578l318.012422-330.73292 324.372671 330.73292H626.484472V539.826087H397.515528z"  horiz-adv-x="1024" />

    
    <glyph glyph-name="android" unicode="&#59859;" d="M1024 477.365V-128H424.659L1024 477.365z m-653.553-222.87c19.577 19.576 52.706 19.576 72.282 0 19.577-19.577 19.577-52.707 0-72.283-19.576-19.577-52.705-19.577-72.282 0-21.082 19.576-21.082 52.706 0 72.282z m272.565 274.07c19.576 19.576 52.706 19.576 72.282 0 19.577-19.577 19.577-52.706 0-72.283-19.576-19.576-52.706-19.576-72.282 0-19.577 19.577-19.577 51.2 0 72.283zM374.965-81.318l605.364 605.365c-102.4 102.4-236.423 152.094-379.482 129.506V786.07c-1.506 22.588-13.553 34.635-36.141 34.635s-33.13-12.047-36.141-36.141v-150.589c-63.247-19.576-117.46-52.705-165.647-99.388-48.189-48.188-82.824-105.412-100.894-167.153H111.435c-22.588 0-33.13-12.047-36.14-36.14-1.507-24.095 10.54-36.142 36.14-36.142h132.518c-24.094-140.047 27.106-272.565 131.012-376.47z"  horiz-adv-x="1024" />

    
    <glyph glyph-name="d-arrow" unicode="&#59860;" d="M812.8 524.8l-275.2-275.2-275.2 275.2h550.4z"  horiz-adv-x="1024" />

    
    <glyph glyph-name="bottom-arrow-o" unicode="&#59861;" d="M533.333 507.733L358.4 682.667l-59.733-64L533.333 384 768 618.667l-59.733 64-174.934-174.934z m0-260.266L358.4 422.4l-59.733-59.733L533.333 128 768 362.667 708.267 422.4 533.333 247.467z"  horiz-adv-x="1024" />

    
    <glyph glyph-name="bottom" unicode="&#59862;" d="M0 896v-725.333333h725.333333V896H0z m661.333333-661.333333h-597.333333v597.333333h601.6v-597.333333zM725.333333 597.333333v-426.666666H298.666667v-298.666667h725.333333V597.333333z"  horiz-adv-x="1024" />

    
    <glyph glyph-name="close-o" unicode="&#59864;" d="M954.125-29.841L540.443 383.841 954.071 797.47c7.811 7.811 7.811 20.474 0 28.284s-20.474 7.811-28.284 0L512.159 412.125 98.53 825.754c-7.811 7.811-20.474 7.811-28.284 0s-7.811-20.474 0-28.284l413.628-413.628L70.192-29.841c-7.811-7.811-7.811-20.474 0-28.284s20.474-7.811 28.284 0l413.682 413.682L925.84-58.125c7.811-7.811 20.474-7.811 28.284 0s7.812 20.474 0.001 28.284z"  horiz-adv-x="1024" />

    
    <glyph glyph-name="delete" unicode="&#59865;" d="M928 710.4c-6.4 12.8-19.2 19.2-32 32-12.8 6.4-32 12.8-51.2 12.8h-102.4V825.6c0 19.2-6.4 38.4-12.8 51.2-6.4 12.8-25.6 19.2-51.2 19.2H345.6c-19.2 0-38.4-6.4-51.2-19.2-12.8-19.2-19.2-32-19.2-51.2v-70.4H179.2c-19.2 0-32-6.4-51.2-12.8-6.4-6.4-19.2-19.2-32-25.6l-19.2-38.4c0-12.8-6.4-19.2-6.4-32v-44.8h64V0c0-19.2 6.4-38.4 12.8-51.2 6.4-12.8 19.2-32 25.6-38.4 12.8-12.8 25.6-19.2 44.8-25.6 19.2-12.8 38.4-12.8 57.6-12.8h480c19.2 0 38.4 6.4 51.2 12.8 12.8 6.4 25.6 12.8 38.4 25.6 12.8 12.8 19.2 25.6 25.6 38.4 6.4 12.8 6.4 32 6.4 44.8V608h70.4v6.4 12.8c0 12.8 0 25.6-6.4 38.4 0 19.2-6.4 32-12.8 44.8zM345.6 825.6h332.8v-70.4H345.6V825.6z m0-768c0-32-12.8-44.8-32-44.8-12.8 0-19.2 6.4-25.6 12.8-6.4 6.4-6.4 19.2-6.4 38.4V608h64v-550.4z m198.4 0c0-19.2 0-25.6-6.4-38.4-6.4-6.4-12.8-12.8-25.6-12.8-25.6 0-38.4 12.8-38.4 44.8V595.2h64l6.4-537.6z m204.8 0c0-19.2 0-25.6-6.4-38.4-6.4-6.4-12.8-12.8-25.6-12.8-25.6 0-38.4 12.8-38.4 44.8V588.8h70.4v-531.2z"  horiz-adv-x="1024" />

    
    <glyph glyph-name="cut" unicode="&#59866;" d="M864 876.8l-345.6-448L147.2 896S32 755.2 140.8 601.6C249.6 448 512 147.2 512 147.2l384 486.4c6.4 6.4 64 115.2-32 243.2zM512 243.2c-32 0-51.2 25.6-51.2 51.2 0 32 25.6 51.2 51.2 51.2 32 0 51.2-25.6 51.2-51.2 6.4-25.6-19.2-51.2-51.2-51.2z m230.4-12.8c-96 0-179.2-83.2-179.2-179.2S640-128 742.4-128s179.2 83.2 179.2 179.2-83.2 179.2-179.2 179.2z m0-268.8c-51.2 0-89.6 38.4-89.6 89.6 0 51.2 38.4 89.6 89.6 89.6 51.2 0 89.6-38.4 89.6-89.6 0-51.2-44.8-89.6-89.6-89.6z m-454.4 268.8c-96 0-179.2-83.2-179.2-179.2S192-128 288-128s179.2 83.2 179.2 179.2-76.8 179.2-179.2 179.2z m0-268.8c-51.2 0-89.6 38.4-89.6 89.6 0 51.2 38.4 89.6 89.6 89.6s89.6-38.4 89.6-89.6c0-51.2-38.4-89.6-89.6-89.6z"  horiz-adv-x="1024" />

    
    <glyph glyph-name="down-arrow-o" unicode="&#59867;" d="M812.8 518.4l-288-294.4-288 294.4 19.2 25.6 268.8-268.8 268.8 268.8 19.2-25.6z"  horiz-adv-x="1024" />

    
    <glyph glyph-name="delete-o" unicode="&#59868;" d="M966.639004 653.809129h-80.73029v-726.572614c0-29.742739-25.493776-55.236515-55.236515-55.236515H189.078838c-29.742739 0-55.236515 25.493776-55.236514 55.236515V653.809129H57.360996c-12.746888 0-25.493776 12.746888-25.493776 25.493776s12.746888 25.493776 25.493776 25.493775h913.526971c12.746888 0 25.493776-12.746888 25.493776-25.493775s-12.746888-25.493776-29.742739-25.493776z m-777.560166-722.323652h645.842324v722.323652H189.078838v-722.323652z m484.381743 131.717843c-12.746888 0-25.493776 12.746888-25.493776 25.493775v373.908714c0 12.746888 12.746888 25.493776 25.493776 25.493776s25.493776-12.746888 25.493776-25.493776V88.697095c0-12.746888-12.746888-25.493776-25.493776-25.493775z m-161.460581 0c-12.746888 0-25.493776 12.746888-25.493776 25.493775v373.908714c0 12.746888 12.746888 25.493776 25.493776 25.493776s25.493776-12.746888 25.493776-25.493776V88.697095c0-12.746888-12.746888-25.493776-25.493776-25.493775z m-161.460581 0c-12.746888 0-25.493776 12.746888-25.493776 25.493775v373.908714c0 12.746888 12.746888 25.493776 25.493776 25.493776s25.493776-12.746888 25.493776-25.493776V88.697095c0-12.746888-8.497925-25.493776-25.493776-25.493775z m322.921162 777.560165H350.539419c-42.489627 0-80.73029-33.991701-80.73029-80.73029H218.821577C218.821577 836.514523 278.307054 896 350.539419 896h322.921162C745.692946 896 809.427386 836.514523 809.427386 760.033195h-55.236515c0 46.738589-38.240664 80.73029-80.73029 80.73029z"  horiz-adv-x="1024" />

    
    <glyph glyph-name="export-second" unicode="&#59869;" d="M993.28 771.64l-79.986 97.053C902.997 884.053 880.868 896 851.911 896H170.382c-29.013 0-51.086-11.947-68.153-29.013l-73.273-95.29C11.946 747.748 0 725.618 0 696.662V-13.88c0-61.27 51.143-112.412 114.176-112.412h795.648A114.176 114.176 0 0 1 1024-12.117V696.66c-1.707 28.957-13.653 51.087-30.72 74.98zM616.846 192.285v-114.176H388.494V192.284H187.45l315.164 311.752 315.222-311.752H616.789z m-497.55 589.54l45.966 56.263h681.53l51.142-56.263H119.296z"  horiz-adv-x="1024" />

    
    <glyph glyph-name="download" unicode="&#59870;" d="M796.8 540.8c-12.8 137.6-131.2 246.4-272 246.4s-256-105.6-272-240c-134.4-22.4-240-137.6-240-281.6 0-156.8 128-284.8 284.8-284.8h451.2c147.2 12.8 262.4 134.4 262.4 284.8 0 134.4-92.8 243.2-214.4 275.2z m-284.8-512l-265.6 284.8h192V576h140.8v-262.4h198.4L512 28.8z"  horiz-adv-x="1024" />

    
    <glyph glyph-name="left-arrow-o" unicode="&#59871;" d="M659.2 96L364.8 384l294.4 288 25.6-19.2L409.6 384l268.8-268.8-19.2-19.2z"  horiz-adv-x="1024" />

    
    <glyph glyph-name="left-circle-o" unicode="&#59872;" d="M656.290909 616.727273c0-9.309091-4.654545-13.963636-9.309091-23.272728L442.181818 384l209.454546-209.454545c13.963636-13.963636 13.963636-32.581818 0-41.89091-13.963636-13.963636-32.581818-13.963636-41.890909 0l-228.072728 232.727273c-13.963636 13.963636-13.963636 32.581818 0 41.890909l228.072728 232.727273c13.963636 9.309091 32.581818 9.309091 41.890909-4.654545 0-4.654545 4.654545-13.963636 4.654545-18.618182zM1005.381818 384c0-130.327273-51.2-256-144.290909-349.090909-190.836364-190.836364-502.690909-190.836364-693.527273 0S-23.272727 537.6 167.563636 728.436364s502.690909 190.836364 693.527273 0c88.436364-88.436364 144.290909-214.109091 144.290909-344.436364zM83.781818 384c0-237.381818 190.836364-428.218182 428.218182-428.218182 116.363636 0 223.418182 46.545455 307.2 125.672727 167.563636 167.563636 167.563636 442.181818 0 609.745455S377.018182 858.763636 209.454545 691.2C125.672727 607.418182 83.781818 500.363636 83.781818 384z"  horiz-adv-x="1024" />

    
    <glyph glyph-name="edit-o" unicode="&#59873;" d="M991.51 840.747l-22.678 22.677C947.755 884.437 919.872 896 890.176 896c-29.739 0-57.664-11.563-78.677-32.555L156.032 207.98c-0.917-0.939-1.365-2.112-2.09-3.136-0.577-0.832-1.387-1.451-1.878-2.39L2.261-97.13c-4.096-8.17-2.474-18.133 4.011-24.618A21.427 21.427 0 0 1 21.376-128c3.243 0 6.507 0.704 9.536 2.219L330.475 24.02c1.024 0.512 1.706 1.387 2.624 2.048 0.96 0.683 2.069 1.088 2.922 1.942L905.26 597.227l86.25 86.229c43.328 43.35 43.328 113.941 0 157.29zM740.394 731.883l119.552-119.574L320.96 73.301 201.344 192.896l539.05 538.987z m-563.371-575.04L284.907 48.98 69.077-58.965l107.947 215.808z m784.277 556.8l-71.146-71.147-119.552 119.573 71.146 71.147c25.899 25.899 71.019 25.899 96.896 0l22.656-22.677c12.907-12.928 20.054-30.166 20.054-48.448s-7.147-35.52-20.054-48.448z"  horiz-adv-x="1025" />

    
    <glyph glyph-name="ios" unicode="&#59874;" d="M776.72 350.752c1.44-144.832 142.4-189.888 144-190.56a521.76 521.76 0 0 0-69.6-136.24c-41.92-58.368-85.28-116.4-153.6-117.6-67.36-1.2-88.96 38.016-165.76 38.016s-100.96-36.8-164.48-39.216c-66.08-2.4-116.32 62.976-158.56 121.12-86.24 118.944-152.16 336-63.68 482.624a247.888 247.888 0 0 0 207.84 120.096c64.8 1.12 126.08-41.712 165.6-41.712s114.08 51.472 192.32 43.936a238.576 238.576 0 0 0 183.52-94.864c-4.64-2.928-118.88-64.256-117.6-185.6z m-266.24 291.36c-7.52 55.056 20.96 112.272 53.44 148.224a228.24 228.24 0 0 0 147.84 72.496 205.2 205.2 0 0 0-52.32-152.944c-35.04-40.416-92.48-72-148.96-67.776z"  horiz-adv-x="1024" />

    
    <glyph glyph-name="copy-o" unicode="&#59875;" d="M568.889 497.778H370.347a28.501 28.501 0 0 1-29.014-28.445c0-15.246 12.971-28.444 29.014-28.444h198.542v-195.527c0-17.238 12.743-32.029 28.444-32.029 15.247 0 28.445 14.336 28.445 32.029V440.889H824.32c16.327 0 29.013 12.743 29.013 28.444a29.013 29.013 0 0 1-29.013 28.445H625.778V693.305c0 17.237-12.743 32.028-28.445 32.028-15.246 0-28.444-14.336-28.444-32.028v-195.527zM170.667 725.333H0V-128h853.333V42.667H1024V896H170.667v-170.667z m625.777-682.666v-113.778H56.89V668.444h113.778v-625.777h625.777zM227.556 839.11H967.11v-739.555H227.556V839.11z"  horiz-adv-x="1024" />

    
    <glyph glyph-name="down-circle-o" unicode="&#59876;" d="M750.151925 533.710718c8.524454 0 12.786681-4.262227 21.311134-8.524454 12.786681-12.786681 12.786681-29.835588 4.262227-46.884495l-238.684703-238.684703c-12.786681-12.786681-34.097815-12.786681-46.884496 0L251.471384 482.563996c-12.786681 12.786681-12.786681 29.835588 0 42.622268 12.786681 12.786681 34.097815 12.786681 46.884495 0l217.373569-217.373569 217.37357 217.373569c0 8.524454 8.524454 8.524454 17.048907 8.524454zM873.756504 742.559834c200.324662-200.324662 200.324662-519.991675 0-720.316338s-519.991675-200.324662-720.316338 0-200.324662 519.991675 0 720.316338C247.209157 840.591051 375.075963 896 511.467222 891.737773c136.391259 0 264.258065-51.146722 362.289282-149.177939z m-362.289282-809.823101c119.342352 0 234.422477 46.884495 319.667013 132.129032 179.013528 179.013528 174.751301 464.582726 0 639.334027S366.551509 878.951093 191.800208 704.199792c-85.244537-85.244537-132.129032-200.324662-132.129032-319.667014 0-251.471384 200.324662-451.796046 451.796046-451.796045z"  horiz-adv-x="1025" />

    
    <glyph glyph-name="minus-circle-o" unicode="&#59877;" d="M512 896C226.743 896 0 669.257 0 384s226.743-512 512-512 512 226.743 512 512S797.257 896 512 896z m0-950.857C270.629-54.857 73.143 142.629 73.143 384S270.629 822.857 512 822.857 950.857 625.371 950.857 384 753.371-54.857 512-54.857zM731.429 420.571H292.57C270.63 420.571 256 405.943 256 384s14.629-36.571 36.571-36.571H731.43C753.37 347.429 768 362.057 768 384s-14.629 36.571-36.571 36.571z"  horiz-adv-x="1024" />

    
    <glyph glyph-name="cut-o" unicode="&#59878;" d="M784.126-42.938c-74.88 0-135.87 60.927-135.87 135.87 0 74.944 60.99 135.872 135.87 135.872s135.872-60.928 135.872-135.871c0-74.944-60.992-135.871-135.872-135.871m-416.445 135.87c0-74.943-60.928-135.87-135.807-135.87-74.944 0-135.872 60.927-135.872 135.87 0 74.944 60.928 135.872 135.872 135.872 74.88 0 135.807-60.928 135.807-135.871m416.445 199.87c-23.423 0-45.631-4.8-66.56-12.223-0.32 0.384-0.447 0.896-0.831 1.28L553.28 445.315l396.03 396.03c12.48 12.543 12.48 32.767 0 45.247-12.544 12.544-32.768 12.544-45.248 0l-396.094-396.03-396.03 396.03c-12.48 12.544-32.767 12.544-45.247 0-12.48-12.48-12.48-32.704 0-45.248l396.03-396.03L299.264 281.86c-0.384-0.384-0.512-0.896-0.832-1.344-20.928 7.488-43.135 12.288-66.56 12.288-110.207 0-199.87-89.664-199.87-199.871 0-110.208 89.663-199.871 199.87-199.871 110.144 0 199.807 89.663 199.807 199.87 0 62.976-29.887 118.592-75.583 155.264l151.871 151.87 151.935-151.87c-45.76-36.672-75.647-92.288-75.647-155.263 0-110.208 89.663-199.871 199.87-199.871 110.208 0 199.871 89.663 199.871 199.87 0 110.208-89.663 199.872-199.87 199.872"  horiz-adv-x="1024" />

    
    <glyph glyph-name="large" unicode="&#59879;" d="M949.9-3l-124 124.1c28.2 33.3 51.1 70.4 68.2 110.8 22.5 53.3 34 109.9 34 168.2s-11.4 114.9-34 168.2c-21.8 51.5-52.9 97.6-92.6 137.3-39.7 39.7-85.8 70.8-137.3 92.6C610.9 820.6 554.3 832 496 832S381.1 820.6 327.8 798c-51.5-21.8-97.6-52.9-137.3-92.6-39.7-39.7-70.8-85.8-92.6-137.3C75.4 514.9 64 458.3 64 400s11.4-114.9 34-168.2c21.8-51.5 52.9-97.6 92.6-137.3 39.7-39.7 85.8-70.8 137.3-92.6 53.3-22.5 109.9-34 168.2-34s114.9 11.4 168.2 34c40.4 17.1 77.5 40 110.8 68.2l123.9-124c14-14 36.9-14 50.9 0s14 36.9 0 50.9zM496 40c-198.8 0-360 161.2-360 360s161.2 360 360 360 360-161.2 360-360-161.2-360-360-360zM644 436H532V548c0 19.8-16.2 36-36 36s-36-16.2-36-36v-112H348c-19.8 0-36-16.2-36-36s16.2-36 36-36h112v-112c0-19.8 16.2-36 36-36s36 16.2 36 36V364h112c19.8 0 36 16.2 36 36s-16.2 36-36 36z"  horiz-adv-x="1024" />

    
    <glyph glyph-name="next-o" unicode="&#59880;" d="M729.6 448H128v-85.333h601.6L597.333 230.4l59.734-59.733 234.666 234.666L661.333 640 601.6 580.267 729.6 448z"  horiz-adv-x="1024" />

    
    <glyph glyph-name="list" unicode="&#59881;" d="M384 576h512c38.4 0 64 25.6 64 64s-25.6 64-64 64H384c-38.4 0-64-25.6-64-64s25.6-64 64-64z m512-128H384c-38.4 0-64-25.6-64-64s25.6-64 64-64h512c38.4 0 64 25.6 64 64s-25.6 64-64 64z m0-256H384c-38.4 0-64-25.6-64-64s25.6-64 64-64h512c38.4 0 64 25.6 64 64s-25.6 64-64 64zM128 704c-38.4 0-64-25.6-64-64s25.6-64 64-64 64 25.6 64 64-25.6 64-64 64z m0-256c-38.4 0-64-25.6-64-64s25.6-64 64-64 64 25.6 64 64-25.6 64-64 64z m0-256c-38.4 0-64-25.6-64-64s25.6-64 64-64 64 25.6 64 64-25.6 64-64 64z"  horiz-adv-x="1024" />

    
    <glyph glyph-name="date-ant" unicode="&#59882;" d="M175.134 411.38h134.69v-80.82h-134.69z m0-161.629h134.69v-80.82h-134.69z m0-161.639h134.69v-80.819h-134.69zM444.512 411.38h134.7v-80.82h-134.7z m0-161.629h134.7v-80.82h-134.7z m0-161.639h134.7v-80.819h-134.7zM713.91 411.38H848.6v-80.82H713.91z m0-161.629H848.6v-80.82H713.91z m0-161.639H848.6v-80.819H713.91zM942.884 788.23h-55.16V828.635A67.344 67.344 0 0 1 820.38 895.99h-26.94a67.334 67.334 0 0 1-67.345-67.355v-40.405H295.068V828.635A67.344 67.344 0 0 1 227.724 895.99h-26.94a67.334 67.334 0 0 1-67.344-67.355v-40.405H80.85A80.83 80.83 0 0 1 0.03 707.411v-754.284a80.82 80.82 0 0 1 80.82-80.82h862.034a80.81 80.81 0 0 1 80.82 80.82V707.41a80.82 80.82 0 0 1-80.82 80.82z m-189.849 0V828.635A40.415 40.415 0 0 0 793.44 869.05h26.94a40.415 40.415 0 0 0 40.404-40.415v-161.629a40.405 40.405 0 0 0-40.404-40.404h-26.94a40.405 40.405 0 0 0-40.405 40.404V788.23z m-592.656 0V828.635a40.405 40.405 0 0 0 40.405 40.415h26.94a40.405 40.405 0 0 0 40.405-40.415v-161.629a40.405 40.405 0 0 0-40.405-40.404h-26.94a40.405 40.405 0 0 0-40.405 40.404V788.23z m809.444-862.043H53.91V518.842h915.913v-592.655z"  horiz-adv-x="1024" />

    
    <glyph glyph-name="move-o" unicode="&#59883;" d="M1024 384L833.024 574.976v-130.56H572.416V705.024h130.56L512 896 321.024 705.024h130.56v-260.608H190.976v130.56L0 384l190.976-190.976v130.56h260.608v-260.608h-130.56L512-128l190.976 190.976h-130.56V323.584h260.608v-130.56L1024 384z"  horiz-adv-x="1024" />

    
    <glyph glyph-name="preview-left-o" unicode="&#59884;" d="M727.04 896L473.088 384 727.04-128h-176.128L296.96 384 550.912 896H727.04z"  horiz-adv-x="1024" />

    
    <glyph glyph-name="more" unicode="&#59885;" d="M512 794.688a410.688 410.688 0 1 1 0-821.376A410.688 410.688 0 0 1 512 794.688z m-225.344-480a69.312 69.312 0 1 0 0 138.624 69.312 69.312 0 0 0 0-138.624z m225.344 0a69.312 69.312 0 1 0 0 138.624 69.312 69.312 0 0 0 0-138.624z m225.344 0a69.312 69.312 0 1 0 0 138.624 69.312 69.312 0 0 0 0-138.624z"  horiz-adv-x="1024" />

    
    <glyph glyph-name="previous-o" unicode="&#59886;" d="M290.133 448H896v-85.333H290.133L422.4 230.4l-59.733-59.733L128 405.333 362.667 640l59.733-59.733L290.133 448z"  horiz-adv-x="1024" />

    
    <glyph glyph-name="export" unicode="&#59887;" d="M712-101.312H122.688c-52.928 0-96 43.072-96 96V584h64v-589.312a32 32 0 0 1 32-32h589.312v-64zM928 864H242.688c-35.2 0-64-28.8-64-64v-685.312c0-35.2 28.8-64 64-64H928c35.2 0 64 28.8 64 64V800c0 35.2-28.8 64-64 64z m-86.656-441.28L609.344 654.784v-516.096h-56v517.12L320.32 422.72l-39.616 39.616 272.64 272.64V736h56v-2.048l271.616-271.616-39.616-39.616z"  horiz-adv-x="1024" />

    
    <glyph glyph-name="minus-o" unicode="&#59888;" d="M1004.8 362.667H21.333a19.12 19.12 0 0 0-19.2 19.2V384c0 12.8 8.534 21.333 19.2 21.333H1004.8a19.12 19.12 0 0 0 19.2-19.2V384c2.133-12.8-8.533-21.333-19.2-21.333z"  horiz-adv-x="1024" />

    
    <glyph glyph-name="import" unicode="&#59889;" d="M710.4 806.4H121.6c-19.2 0-32-12.8-32-32v-588.8h-64V774.4c0 51.2 44.8 96 96 96h588.8v-64zM992-12.8V672c0 38.4-25.6 64-64 64H243.2c-32 0-64-25.6-64-64v-684.8c0-38.4 32-64 64-64h684.8c38.4 0 64 25.6 64 64z m-108.8 339.2l-268.8-268.8h-57.6L281.6 326.4l38.4 38.4L550.4 128V646.4h57.6V128l230.4 230.4 44.8-32z"  horiz-adv-x="1024" />

    
    <glyph glyph-name="preview-o" unicode="&#59890;" d="M704 832c-17.066667 0-34.133333 12.8-34.133333 34.133333s17.066667 29.866667 34.133333 29.866667h187.733333C964.266667 896 1024 836.266667 1024 763.733333v-187.733333c0-17.066667-12.8-34.133333-29.866667-34.133333-17.066667 0-34.133333 12.8-34.133333 29.866666V763.733333c0 38.4-29.866667 68.266667-68.266667 68.266667h-187.733333z m256-622.933333c0 17.066667 12.8 34.133333 29.866667 34.133333 17.066667 0 34.133333-12.8 34.133333-29.866667v-200.533333c0-72.533333-59.733333-132.266667-132.266667-132.266667h-128c-17.066667 0-34.133333 12.8-34.133333 29.866667 0 17.066667 12.8 34.133333 29.866667 34.133333h128c38.4 0 68.266667 29.866667 68.266666 68.266667v196.266667zM337.066667-64c17.066667 0 34.133333-12.8 34.133333-29.866667 0-17.066667-12.8-34.133333-29.866667-34.133333H132.266667C59.733333-128 0-68.266667 0 4.266667v187.733333c0 17.066667 12.8 34.133333 34.133333 34.133333s34.133333-12.8 34.133334-34.133333v-187.733333c0-38.4 29.866667-68.266667 68.266666-68.266667h200.533334z m-273.066667 640c0-17.066667-12.8-29.866667-34.133333-29.866667S0 558.933333 0 576V763.733333C0 836.266667 59.733333 896 132.266667 896h187.733333c17.066667 0 29.866667-12.8 29.866667-34.133333s-12.8-29.866667-29.866667-29.866667H132.266667c-38.4 0-68.266667-29.866667-68.266667-68.266667v-187.733333zM512 221.866667c110.933333 0 213.333333 55.466667 307.2 174.933333C725.333333 520.533333 622.933333 576 512 576s-213.333333-55.466667-307.2-174.933333c93.866667-119.466667 196.266667-179.2 307.2-179.2z m0-64c-132.266667 0-251.733333 68.266667-358.4 200.533333-17.066667 25.6-17.066667 55.466667 0 81.066667C260.266667 571.733333 379.733333 640 512 640s251.733333-68.266667 358.4-200.533333c17.066667-25.6 17.066667-55.466667 0-81.066667-106.666667-132.266667-226.133333-200.533333-358.4-200.533333zM512 320c42.666667 0 81.066667 34.133333 81.066667 81.066667 0 42.666667-34.133333 81.066667-81.066667 81.066666-42.666667 0-81.066667-34.133333-81.066667-81.066666 0-46.933333 38.4-81.066667 81.066667-81.066667z m0-64c-81.066667 0-145.066667 64-145.066667 145.066667s64 145.066667 145.066667 145.066666 145.066667-64 145.066667-145.066666S593.066667 256 512 256z"  horiz-adv-x="1024" />

    
    <glyph glyph-name="right-arrow-o" unicode="&#59891;" d="M384 672L678.4 384 384 96l-25.6 19.2L633.6 384 364.8 652.8l19.2 19.2z"  horiz-adv-x="1024" />

    
    <glyph glyph-name="refresh" unicode="&#59892;" d="M176.542 346.978c-24.163 153.561 58.88 308.756 207.222 367.459 109.902 43.54 228.43 22.725 312.34-39.463l-71.405-117.465 320.236 1.24L830.484 896 771.86 799.567C648.212 880.896 479.665 907.48 332.07 849.054 127.586 768.098 9.886 558.71 33.122 346.978h143.42z m670.916 84.047c24.143-153.56-58.88-308.775-207.202-367.458-101.08-40.054-212.54-24.97-298.2 28.987 16.305 26.9 64.511 106.2 64.511 106.2l-344.379 20.54L207.911-128l61.106 100.49c123.628-81.33 275.298-102.006 422.892-43.56 204.445 80.995 322.166 290.344 298.93 502.056h-143.4v0.04z"  horiz-adv-x="1024" />

    
    <glyph glyph-name="save-as-o" unicode="&#59893;" d="M998.4 759.466667v-746.666667c0-76.8-59.733333-136.533333-136.533333-136.533333H162.133333C85.333333-123.733333 25.6-59.733333 25.6 12.8V759.466667C25.6 832 85.333333 896 162.133333 896h699.733334c76.8 0 136.533333-64 136.533333-136.533333z m-51.2-738.133334v725.333334c0 46.933333-29.866667 98.133333-76.8 98.133333h-25.6v-443.733333H174.933333V844.8h-25.6c-46.933333 0-76.8-55.466667-76.8-98.133333v-725.333334c0-46.933333 55.466667-98.133333 98.133334-98.133333h674.133333c51.2 0 102.4 51.2 102.4 98.133333z m-149.333333 430.933334V844.8H226.133333v-396.8h571.733334zM601.6 772.266667h51.2v-243.2h-51.2zM499.2 132.266667h358.4M725.333333 209.066667l132.266667-76.8M725.333333 55.466667l132.266667 76.8"  horiz-adv-x="1024" />

    
    <glyph glyph-name="relation-o" unicode="&#59894;" d="M592.457143 113.371429c-14.628571 14.628571-14.628571 29.257143 0 43.885714 7.314286 7.314286 14.628571 14.628571 21.942857 14.628571h182.857143c43.885714 0 87.771429 14.628571 117.028571 51.2 29.257143 29.257143 51.2 73.142857 51.2 117.028572 0 43.885714-14.628571 87.771429-51.2 117.028571-29.257143 29.257143-73.142857 51.2-117.028571 51.2H614.4c-14.628571-7.314286-29.257143 7.314286-29.257143 21.942857 0 14.628571 14.628571 29.257143 29.257143 29.257143h182.857143c58.514286 0 117.028571-21.942857 160.914286-65.828571 43.885714-36.571429 65.828571-95.085714 65.828571-160.914286 0-58.514286-21.942857-117.028571-65.828571-160.914286-43.885714-43.885714-102.4-65.828571-160.914286-65.828571H614.4c-7.314286 0-14.628571 0-21.942857 7.314286zM65.828571 171.885714C21.942857 215.771429 0 274.285714 0 332.8 0 457.142857 102.4 559.542857 226.742857 559.542857h182.857143c14.628571 7.314286 29.257143-7.314286 29.257143-29.257143 0-14.628571-14.628571-29.257143-29.257143-29.257143H226.742857C131.657143 501.028571 58.514286 427.885714 58.514286 332.8c0-43.885714 14.628571-87.771429 51.2-117.028571 29.257143-29.257143 73.142857-51.2 117.028571-51.2h182.857143c14.628571 0 29.257143-14.628571 29.257143-29.257143s-14.628571-29.257143-29.257143-29.257143H226.742857c-58.514286 0-117.028571 21.942857-160.914286 65.828571zM292.571429 347.428571c7.314286 14.628571 14.628571 21.942857 29.257142 21.942858h373.028572c14.628571 0 21.942857-7.314286 29.257143-14.628572 7.314286-7.314286 7.314286-21.942857 0-29.257143 0-14.628571-14.628571-21.942857-21.942857-21.942857H329.142857c-7.314286 0-14.628571 0-21.942857 7.314286-14.628571 14.628571-14.628571 21.942857-14.628571 36.571428z"  horiz-adv-x="1024" />

    
    <glyph glyph-name="find-o" unicode="&#59895;" d="M861.090909 840.145455h-698.181818c-60.509091 0-111.709091-51.2-111.709091-111.709091v-698.181819c0-60.509091 51.2-111.709091 111.709091-111.70909h507.345454c18.618182 0 32.581818 13.963636 32.581819 32.581818s-13.963636 32.581818-32.581819 32.581818H162.909091c-27.927273 0-51.2 23.272727-51.2 51.2v698.181818c4.654545 23.272727 27.927273 46.545455 51.2 46.545455h698.181818c27.927273 0 51.2-23.272727 51.2-51.2v-470.109091c0-18.618182 13.963636-32.581818 32.581818-32.581818s32.581818 13.963636 32.581818 32.581818V733.090909c-4.654545 60.509091-55.854545 107.054545-116.363636 107.054546zM662.714182 267.682909c38.679273 43.008 60.183273 98.909091 60.183273 163.374546 0 137.588364-111.802182 245.108364-245.108364 245.108363C340.247273 676.165818 232.727273 564.363636 232.727273 431.057455c0-137.588364 111.802182-245.108364 245.108363-245.108364 55.901091 0 103.191273 17.221818 141.917091 47.290182l124.695273-124.695273c4.282182-4.282182 12.893091-8.610909 21.504-8.610909s12.893091 4.282182 21.504 8.610909c12.893091 12.893091 12.893091 30.114909 0 38.679273l-124.741818 120.459636z m-374.085818 163.374546c0 103.191273 86.016 189.207273 189.207272 189.207272s189.207273-86.016 189.207273-189.207272-86.016-189.207273-189.207273-189.207273c-103.191273-4.282182-189.207273 81.733818-189.207272 189.207273z"  horiz-adv-x="1024" />

    
    <glyph glyph-name="preview-right-o" unicode="&#59896;" d="M296.96-128l253.952 512L296.96 896h176.128L727.04 384 473.088-128H296.96z"  horiz-adv-x="1024" />

    
    <glyph glyph-name="right-circle-o" unicode="&#59897;" d="M367.709091 151.272727c0 9.309091 4.654545 13.963636 9.309091 23.272728l209.454545 209.454545-209.454545 209.454545c-13.963636 13.963636-13.963636 32.581818 0 41.89091 13.963636 13.963636 32.581818 13.963636 41.890909 0l228.072727-228.072728c13.963636-13.963636 13.963636-32.581818 0-41.890909l-228.072727-232.727273c-13.963636-9.309091-32.581818-9.309091-41.890909 4.654546-4.654545 0-9.309091 9.309091-9.309091 13.963636zM18.618182 384c0 130.327273 51.2 256 144.290909 349.090909 190.836364 190.836364 502.690909 190.836364 693.527273 0s190.836364-502.690909 0-693.527273-502.690909-190.836364-693.527273 0C74.472727 128 18.618182 253.672727 18.618182 384z m921.6 0c0 237.381818-190.836364 428.218182-428.218182 428.218182-116.363636 0-223.418182-46.545455-307.2-125.672727C37.236364 518.981818 37.236364 244.363636 204.8 76.8s442.181818-167.563636 609.745455 0c83.781818 83.781818 125.672727 190.836364 125.672727 307.2z"  horiz-adv-x="1024" />

    
    <glyph glyph-name="mark" unicode="&#59898;" d="M756.022 773.803c86.047 0 142.802 9.123 195.584 41.766v-516.406c-52.782-32.582-107.799-55.203-193.846-55.203-85.985 0-117.884 9.837-170.512 42.636-52.565 32.52-109.568 42.636-195.521 42.636-85.923 0-158.845-31.93-211.534-64.575V800.147c52.69 32.8 125.642 64.73 211.534 64.73 85.953 0 142.987-10.21 195.521-42.636 52.69-32.52 82.882-48.438 168.774-48.438zM98.149-114.16a31.03 31.03 0 0 0-31.03 31.03V832.574a31.03 31.03 0 1 0 62.06 0V-83.13a31.03 31.03 0 0 0-31.03-31.03z"  horiz-adv-x="1024" />

    
    <glyph glyph-name="message-o" unicode="&#59899;" d="M65.068-63.56L79.7-9.809c0.464 1.694 45.775 172.649-0.504 409.174l-0.561 5.718c0 235.336 197.231 426.794 439.661 426.794 242.426 0 439.661-191.459 439.661-426.794 0-235.364-197.234-426.841-439.661-426.841l-5.214 0.456c-44.615 7.945-91.67 11.967-139.83 11.967-144.363 0-254.288-36.202-255.394-36.57l-52.79-17.655z m73.121 471.452c33.801-174.974 20.679-313.98 9.109-384.041 48.451 11.532 129.479 26.349 225.955 26.349 50.7 0 100.351-4.177 147.601-12.412 208.414 1.338 377.568 165.594 377.568 367.294 0 202.505-170.528 367.257-380.127 367.257-208.627 0-378.536-163.23-380.106-364.447zM359.455 392.205c0-22.628-18.352-40.989-41.008-40.989-22.637 0-40.991 18.361-40.991 40.989 0 22.636 18.353 40.998 40.991 40.998 22.655 0 41.01-18.362 41.01-40.998h-0.002zM318.447 341.292c-28.083 0-50.914 22.839-50.914 50.913 0 28.082 22.83 50.92 50.914 50.92 28.082 0 50.93-22.839 50.93-50.92 0-28.074-22.849-50.911-50.93-50.911v-0.002z m0 81.989c-17.133 0-31.067-13.943-31.067-31.076 0-17.133 13.934-31.067 31.067-31.067 17.13 0 31.086 13.934 31.086 31.067-0.001 17.133-13.957 31.076-31.086 31.076z m240.818-33.392c0-22.627-18.333-40.999-40.969-40.999-22.656 0-41.01 18.372-41.01 40.998 0 22.627 18.354 40.99 41.01 40.99 22.636 0 40.969-18.364 40.969-40.989zM518.297 338.967c-28.083 0-50.932 22.839-50.932 50.922 0 28.071 22.849 50.911 50.932 50.911 28.061 0 50.891-22.841 50.891-50.911 0-28.083-22.83-50.922-50.891-50.922z m0 81.987c-17.134 0-31.087-13.933-31.087-31.067 0-17.133 13.953-31.074 31.087-31.074 17.112 0 31.045 13.943 31.045 31.076s-13.933 31.067-31.045 31.067v-0.002z m240.817-26.422c0-22.628-18.352-40.992-40.988-40.992-22.656 0-40.991 18.364-40.991 40.992 0 22.625 18.335 40.998 40.991 40.998 22.636 0 40.988-18.373 40.988-40.998zM718.125 343.617c-28.08 0-50.91 22.84-50.91 50.914 0 28.08 22.83 50.92 50.911 50.92 28.082 0 50.911-22.84 50.911-50.92 0-28.074-22.83-50.914-50.911-50.914h-0.001z m0 81.99c-17.131 0-31.065-13.944-31.065-31.076 0-17.134 13.934-31.068 31.067-31.068 17.133 0 31.065 13.934 31.065 31.067-0.001 17.133-13.935 31.077-31.067 31.077z"  horiz-adv-x="1024" />

    
    <glyph glyph-name="maxmize-o" unicode="&#59900;" d="M889.6 896H134.4C57.6 896 0 838.4 0 761.6v-755.2C0-70.4 57.6-128 134.4-128h755.2c76.8 0 134.4 57.6 134.4 134.4V761.6C1024 838.4 966.4 896 889.6 896z m83.2-889.6c0-44.8-38.4-83.2-83.2-83.2H134.4c-44.8 0-83.2 38.4-83.2 83.2V761.6c0 44.8 38.4 83.2 83.2 83.2h755.2c44.8 0 83.2-38.4 83.2-83.2v-755.2z m-576 300.8l-192-192v96c0 12.8-12.8 25.6-25.6 25.6s-25.6-12.8-25.6-25.6v-160c0-12.8 12.8-25.6 25.6-25.6h160c12.8 0 25.6 12.8 25.6 25.6s-12.8 25.6-25.6 25.6H236.8l192 192c12.8 12.8 12.8 25.6 0 38.4-6.4 12.8-25.6 12.8-32 0z m448 441.6h-160c-12.8 0-25.6-12.8-25.6-25.6s12.8-25.6 25.6-25.6h96l-185.6-192c-12.8-12.8-12.8-25.6 0-38.4 12.8-12.8 25.6-12.8 38.4 0l185.6 185.6v-96c0-12.8 12.8-25.6 25.6-25.6s25.6 12.8 25.6 25.6V716.8c6.4 19.2-6.4 32-25.6 32z"  horiz-adv-x="1024" />

    
    <glyph glyph-name="top" unicode="&#59901;" d="M0 896h725.333333v-725.333333H0zM725.333333 597.333333v-64h238.933334v-601.6H362.666667V170.666667H298.666667v-298.666667h725.333333V597.333333z"  horiz-adv-x="1024" />

    
    <glyph glyph-name="share-no" unicode="&#59902;" d="M731.968 188.16l-232 41.728a177.152 177.152 0 0 1-44.288 151.424l154.624 154.624a127.104 127.104 0 1 1-82.24 119.04c0-35.648 14.656-67.84 38.336-90.944L416 413.632a177.92 177.92 0 0 1-269.312-152.768 177.92 177.92 0 0 1 337.152-79.68l236.224-42.496-0.064-4.544M606.272 320.384l256-256-35.968-36.032-256 256.064zM862.272 284.416l-256-256-35.968 35.904 256 256.064z"  horiz-adv-x="1024" />

    
    <glyph glyph-name="search-o" unicode="&#59903;" d="M97.869 384C97.869 612.357 283.643 798.131 512 798.131c228.357 0 414.131-185.774 414.131-414.131 0-228.357-185.774-414.131-414.131-414.131-228.357 0-414.131 185.774-414.131 414.131z m784.624-337.106C963.81 136.013 1013.76 254.136 1013.76 384c0 276.644-225.116 501.76-501.76 501.76C235.27 885.76 10.24 660.644 10.24 384S235.27-117.76 512-117.76c115.23 0 221.26 39.521 306.176 105.155l92.18-92.365a44.006 44.006 0 0 1 31.028-12.79c11.212 0 22.425 4.296 30.924 12.795 17.178 17.172 17.178 44.866 0 61.952l-89.815 89.907z"  horiz-adv-x="1024" />

    
    <glyph glyph-name="share-no-o" unicode="&#59904;" d="M571.456 681.152a89.152 89.152 0 1 0 178.368 0 89.152 89.152 0 0 0-178.368 0z m-445.76-460.608a148.672 148.672 0 1 0 297.28-0.064 148.672 148.672 0 0 0-297.28 0.064z m548.928-70.592l-195.456 34.432a207.104 207.104 0 0 1-51.776 176.96L608.128 542.08a148.608 148.608 0 1 1-51.328 32.768L380.992 399.104a208 208 0 1 1 79.296-271.616l200.384-35.264-0.064-5.312M596.416 274.112l256-256.064-35.968-35.968-256 256zM852.416 238.08l-256.064-256-35.968 35.968 256 256z"  horiz-adv-x="1024" />

    
    <glyph glyph-name="share-o" unicode="&#59905;" d="M744.149068 43.726708c0 57.242236 44.521739 101.763975 101.763975 101.763975 57.242236 0 101.763975-44.521739 101.763976-101.763975 0-57.242236-44.521739-101.763975-101.763976-101.763975-57.242236 0-101.763975 44.521739-101.763975 101.763975zM578.782609 717.913043c0 57.242236 44.521739 101.763975 101.763975 101.763976 57.242236 0 101.763975-44.521739 101.763975-101.763976 0-57.242236-44.521739-101.763975-101.763975-101.763975-57.242236 0-101.763975 44.521739-101.763975 101.763975z m-508.819876-521.540372c0 95.403727 76.322981 171.726708 171.726708 171.726708 95.403727 0 171.726708-76.322981 171.726708-171.726708 0-95.403727-76.322981-171.726708-171.726708-171.726708-95.403727 0-171.726708 76.322981-171.726708 171.726708z m-69.962733 0c0-133.565217 108.124224-235.329193 235.329193-235.329193 95.403727 0 171.726708 50.881988 209.888198 133.565218l228.968944-38.161491v-6.360248c0-95.403727 76.322981-171.726708 171.726708-171.726709s171.726708 76.322981 171.726709 171.726709c0 95.403727-76.322981 171.726708-171.726709 171.726708-69.962733 0-127.204969-38.161491-152.645962-95.403727l-222.608696 38.161491c0 12.720497 6.360248 25.440994 6.360249 38.16149 0 63.602484-25.440994 120.84472-63.602485 159.006211l203.52795 203.527951c19.080745-6.360248 38.161491-12.720497 57.242236-12.720497 95.403727 0 171.726708 76.322981 171.726708 171.726708 0 95.403727-76.322981 171.726708-171.726708 171.726708C585.142857 889.639752 508.819876 813.31677 508.819876 717.913043c0-44.521739 19.080745-89.043478 50.881987-120.84472L356.173913 399.900621c-31.801242 19.080745-76.322981 31.801242-120.84472 31.801242-127.204969 0-235.329193-108.124224-235.329193-235.329192z"  horiz-adv-x="1024" />

    
    <glyph glyph-name="remove-shelf-o" unicode="&#59906;" d="M295.751553 673.391304h413.416149-413.416149z m457.937888-101.763975c-19.080745 0-38.161491 19.080745-38.161491 38.161491 0 114.484472-95.403727 209.888199-209.888198 209.888199S302.111801 724.273292 302.111801 609.78882c0-19.080745-19.080745-38.161491-38.16149-38.161491s-38.161491 19.080745-38.161491 38.161491C225.78882 768.795031 352.993789 896 505.639752 896c159.006211 0 286.21118-127.204969 286.21118-286.21118 0-19.080745-19.080745-38.161491-38.161491-38.161491zM753.689441 673.391304h57.242236c44.521739 0 89.043478-31.801242 95.403727-76.322981l89.043478-604.223603c6.360248-63.602484-31.801242-120.84472-95.403727-120.84472H124.024845c-57.242236 0-101.763975 50.881988-95.403727 120.84472l89.043478 604.223603c6.360248 44.521739 50.881988 76.322981 95.403727 76.322981h540.621118zM397.515528-38.956522h222.608696v248.04969H830.012422L512 539.826087l-318.012422-330.732919h203.52795v-248.04969z"  horiz-adv-x="1024" />

    
    <glyph glyph-name="share" unicode="&#59907;" d="M0 198.4c0-134.4 108.8-236.8 236.8-236.8 96 0 172.8 51.2 211.2 134.4l230.4-38.4v-6.4c0-96 76.8-172.8 172.8-172.8 96 0 172.8 76.8 172.8 172.8 0 96-76.8 172.8-172.8 172.8-70.4 0-128-38.4-153.6-96l-224 38.4c0 12.8 6.4 25.6 6.4 38.4 0 64-25.6 121.6-64 160l204.8 204.8c19.2-6.4 38.4-12.8 57.6-12.8 96 0 172.8 76.8 172.8 172.8S774.4 896 684.8 896 512 819.2 512 723.2c0-44.8 19.2-89.6 51.2-121.6L358.4 403.2c-32 19.2-76.8 32-121.6 32-128 0-236.8-108.8-236.8-236.8z"  horiz-adv-x="1024" />

    
    <glyph glyph-name="t-arrow" unicode="&#59908;" d="M398.499 659.5l274.256-274.256-274.256-274.256z"  horiz-adv-x="1024" />

    
    <glyph glyph-name="up-circle-o" unicode="&#59909;" d="M751.218592 234.289282c-8.524454 0-17.048907 4.262227-21.311134 8.524454l-217.37357 213.111342-217.373569-217.373569c-12.786681-12.786681-34.097815-12.786681-46.884495 0-12.786681 12.786681-12.786681 34.097815 0 46.884495l238.684703 238.684704c12.786681 12.786681 34.097815 12.786681 46.884496 0l238.684703-238.684704c12.786681-12.786681 8.524454-34.097815-4.262227-46.884495-4.262227 0-8.524454-4.262227-17.048907-4.262227zM512.533888-123.737773c-136.391259 0-264.258065 51.146722-362.289282 149.177939-200.324662 200.324662-200.324662 519.991675 0 720.316338s519.991675 200.324662 720.316337 0 200.324662-519.991675 0-720.316338c-93.768991-98.031217-221.635796-149.17794-358.027055-149.177939z m0 959.00104C261.062504 835.263267 60.737843 634.938606 60.737843 383.467222c0-119.342352 46.884495-234.422477 132.129032-319.667014 179.013528-179.013528 464.582726-179.013528 639.334027 0s179.013528 464.582726 0 639.334027c-85.244537 85.244537-200.324662 132.129032-319.667014 132.129032z"  horiz-adv-x="1024" />

    
    <glyph glyph-name="up-arrow-o" unicode="&#59910;" d="M236.8 249.6l288 294.4 288-294.4-19.2-25.6-268.8 275.2L256 224l-19.2 25.6z"  horiz-adv-x="1024" />

    
    <glyph glyph-name="publish-o" unicode="&#59911;" d="M915.911 765.156L876.09 804.978 398.222 253.156v-267.378h56.89V230.4zM887.467 793.6l-96.711-699.733-250.312 147.91-28.444-51.2 318.578-193.421L961.422 890.31 62.578 440.89l278.755-136.533 28.445 51.2-176.356 85.333z"  horiz-adv-x="1024" />

    
    <glyph glyph-name="windows" unicode="&#59912;" d="M448.512 416.017V786.295l-380.245-82.26v-288.018h380.245z m63.488 0h443.733V896L512 800.017v-384z m-63.488-64.034H68.267v-287.949l380.245-82.33V351.984z m63.488 0v-384L955.733-128V351.983H512z"  horiz-adv-x="1024" />

    
    <glyph glyph-name="question-o" unicode="&#59914;" d="M512.533888-128c-136.391259 0-264.258065 55.408949-362.289282 149.17794-200.324662 200.324662-200.324662 524.253902 0 724.578564s524.253902 200.324662 724.578564 0 200.324662-524.253902 0-724.578564C776.791953-72.591051 648.925147-128 512.533888-128z m0 959.001041C265.324731 831.001041 65.000069 630.676379 65.000069 383.467222c0-119.342352 46.884495-234.422477 132.129033-315.404787 174.751301-174.751301 456.058273-174.751301 630.809573 0s174.751301 456.058273 0 630.809573c-80.98231 85.244537-196.062435 132.129032-315.404787 132.129033zM465.649393 140.520291c0-25.573361 21.311134-46.884495 46.884495-46.884495s46.884495 21.311134 46.884496 46.884495c0 25.573361-21.311134 46.884495-46.884496 46.884496-25.573361 0-46.884495-21.311134-46.884495-46.884496zM512.533888 681.823101c-85.244537 0-153.440166-68.19563-153.440166-153.440167 0-17.048907 12.786681-29.835588 29.835588-29.835587s29.835588 12.786681 29.835588 29.835587c0 51.146722 42.622268 93.768991 93.76899 93.768991 51.146722 0 93.768991-42.622268 93.768991-93.768991 0-21.311134-25.573361-46.884495-51.146722-72.457856-34.097815-34.097815-72.457856-72.457856-72.457857-123.604579v-51.146722c0-17.048907 12.786681-29.835588 29.835588-29.835588 17.048907 0 29.835588 12.786681 29.835588 29.835588v51.146722c0 25.573361 29.835588 51.146722 55.408949 80.982311 34.097815 34.097815 68.19563 68.19563 68.19563 115.080124C665.974055 613.627471 597.778425 681.823101 512.533888 681.823101z"  horiz-adv-x="1026" />

    
    <glyph glyph-name="top-arrow-o" unicode="&#59915;" d="M533.333 302.933L358.4 128l-59.733 59.733L533.333 422.4 768 187.733 708.267 128 533.333 302.933z m0 256L358.4 384l-59.733 64 234.666 234.667L768 448l-59.733-59.733-174.934 170.666z"  horiz-adv-x="1024" />

    
    <glyph glyph-name="unlock-o" unicode="&#59916;" d="M524.8 76.8c-17.066667 0-29.866667 12.8-29.866667 29.866667V256c0 17.066667 12.8 29.866667 29.866667 29.866667 17.066667 0 29.866667-12.8 29.866667-29.866667v-149.333333c0-17.066667-12.8-29.866667-29.866667-29.866667zM921.6 490.666667H260.266667V571.733333c0 145.066667 119.466667 264.533333 264.533333 264.533334 115.2 0 217.6-76.8 251.733333-183.466667 4.266667-17.066667 21.333333-25.6 38.4-17.066667 12.8 4.266667 21.333333 21.333333 17.066667 34.133334-42.666667 128-162.133333 226.133333-307.2 226.133333-179.2 0-324.266667-145.066667-324.266667-324.266667v-81.066666H128c-34.133333 0-59.733333-25.6-59.733333-59.733334v-503.466666c4.266667-29.866667 29.866667-55.466667 59.733333-55.466667h793.6c34.133333 0 59.733333 25.6 59.733333 59.733333V435.2c0 29.866667-25.6 55.466667-59.733333 55.466667z m0-533.333334c0-17.066667-12.8-29.866667-29.866667-29.866666H157.866667c-17.066667 4.266667-29.866667 17.066667-29.866667 29.866666V405.333333c0 17.066667 12.8 29.866667 29.866667 29.866667h733.866666c17.066667 0 29.866667-12.8 29.866667-29.866667V-42.666667zM921.6 490.666667H260.266667V571.733333c0 145.066667 119.466667 264.533333 264.533333 264.533334 115.2 0 217.6-76.8 251.733333-183.466667 4.266667-17.066667 21.333333-25.6 38.4-17.066667 12.8 4.266667 21.333333 21.333333 17.066667 34.133334-42.666667 128-162.133333 226.133333-307.2 226.133333-179.2 0-324.266667-145.066667-324.266667-324.266667v-81.066666H128c-34.133333 0-59.733333-25.6-59.733333-59.733334v-503.466666c4.266667-29.866667 29.866667-55.466667 59.733333-55.466667h793.6c34.133333 0 59.733333 25.6 59.733333 59.733333V435.2c0 29.866667-25.6 55.466667-59.733333 55.466667z m0-533.333334c0-17.066667-12.8-29.866667-29.866667-29.866666H157.866667c-17.066667 4.266667-29.866667 17.066667-29.866667 29.866666V405.333333c0 17.066667 12.8 29.866667 29.866667 29.866667h733.866666c17.066667 0 29.866667-12.8 29.866667-29.866667V-42.666667z"  horiz-adv-x="1024" />

    
    <glyph glyph-name="upload" unicode="&#59917;" d="M806.4 550.4c-12.8 140.8-134.4 256-281.6 256-140.8-6.4-262.4-115.2-275.2-249.6C108.8 531.2 0 409.6 0 262.4c0-160 128-294.4 294.4-294.4h147.2v268.8H236.8L512 531.2l275.2-294.4H588.8v-268.8h166.4c147.2 12.8 268.8 140.8 268.8 294.4 0 140.8-96 256-217.6 288z"  horiz-adv-x="1024" />

    
    <glyph glyph-name="lock-o" unicode="&#59918;" d="M524.746888 75.950207c-16.995851 0-29.742739 12.746888-29.742739 29.742739V254.406639c0 16.995851 12.746888 29.742739 29.742739 29.742739 16.995851 0 29.742739-12.746888 29.742739-29.742739v-148.713693c0-16.995851-12.746888-29.742739-29.742739-29.742739zM919.900415 488.099585H261.311203V568.829876c0 144.46473 118.970954 263.435685 263.435685 263.435684 114.721992 0 216.697095-76.481328 250.688797-182.705394 4.248963-16.995851 21.244813-25.493776 38.240664-16.995851 12.746888 4.248963 21.244813 21.244813 16.99585 33.991702-42.489627 127.46888-161.460581 225.195021-305.925311 225.19502-178.456432 0-322.921162-144.46473-322.921162-322.921161v-80.730291H129.593361c-33.991701 0-59.485477-25.493776-59.485477-59.485477v-501.377593c4.248963-29.742739 29.742739-55.236515 59.485477-55.236515h790.307054c33.991701 0 59.485477 25.493776 59.485477 59.485477V432.863071c0 29.742739-25.493776 55.236515-59.485477 55.236514z m0-531.120332c0-16.995851-12.746888-29.742739-29.742739-29.742738H159.3361c-16.995851 4.248963-29.742739 16.995851-29.742739 29.742738V403.120332c0 16.995851 12.746888 29.742739 29.742739 29.742739h730.821576c16.995851 0 29.742739-12.746888 29.742739-29.742739V-43.020747zM919.900415 488.099585H261.311203V568.829876c0 144.46473 118.970954 263.435685 263.435685 263.435684 114.721992 0 216.697095-76.481328 250.688797-182.705394 4.248963-16.995851 21.244813-25.493776 38.240664-16.995851 12.746888 4.248963 21.244813 21.244813 16.99585 33.991702-42.489627 127.46888-161.460581 225.195021-305.925311 225.19502-178.456432 0-322.921162-144.46473-322.921162-322.921161v-80.730291H129.593361c-33.991701 0-59.485477-25.493776-59.485477-59.485477v-501.377593c4.248963-29.742739 29.742739-55.236515 59.485477-55.236515h790.307054c33.991701 0 59.485477 25.493776 59.485477 59.485477V432.863071c0 29.742739-25.493776 55.236515-59.485477 55.236514z m0-531.120332c0-16.995851-12.746888-29.742739-29.742739-29.742738H159.3361c-16.995851 4.248963-29.742739 16.995851-29.742739 29.742738V403.120332c0 16.995851 12.746888 29.742739 29.742739 29.742739h730.821576c16.995851 0 29.742739-12.746888 29.742739-29.742739V-43.020747zM495.004149 105.692946V254.406639c0 16.995851 12.746888 29.742739 29.742739 29.742739 16.995851 0 29.742739-12.746888 29.742739-29.742739v-148.713693c0-16.995851-12.746888-29.742739-29.742739-29.742739-16.995851 0-29.742739 12.746888-29.742739 29.742739zM74.356846 432.863071v-501.377594c0-33.991701 25.493776-59.485477 55.236515-59.485477h790.307054c33.991701 0 59.485477 25.493776 59.485477 59.485477V432.863071c0 33.991701-25.493776 59.485477-59.485477 59.485477h-72.232365V573.078838c0 178.456432-144.46473 322.921162-322.921162 322.921162C384.53112 891.751037 261.311203 798.273859 223.070539 666.556017c-4.248963-12.746888 0-29.742739 16.995851-33.991702 16.995851-8.497925 33.991701 0 38.240664 16.995851 33.991701 106.224066 131.717842 182.705394 250.688797 182.705394 144.46473 0 263.435685-118.970954 263.435684-263.435684v-80.730291H129.593361c-29.742739 0-55.236515-25.493776-55.236515-55.236514z m55.236515-29.742739c0 16.995851 12.746888 29.742739 29.742739 29.742739h730.821576c16.995851 0 29.742739-12.746888 29.742739-29.742739V-43.020747c0-16.995851-12.746888-29.742739-29.742739-29.742738H159.3361c-16.995851 4.248963-29.742739 16.995851-29.742739 29.742738V403.120332zM74.356846 432.863071v-501.377594c0-33.991701 25.493776-59.485477 55.236515-59.485477h790.307054c33.991701 0 59.485477 25.493776 59.485477 59.485477V432.863071c0 33.991701-25.493776 59.485477-59.485477 59.485477h-72.232365V573.078838c0 178.456432-144.46473 322.921162-322.921162 322.921162C384.53112 891.751037 261.311203 798.273859 223.070539 666.556017c-4.248963-12.746888 0-29.742739 16.995851-33.991702 16.995851-8.497925 33.991701 0 38.240664 16.995851 33.991701 106.224066 131.717842 182.705394 250.688797 182.705394 144.46473 0 263.435685-118.970954 263.435684-263.435684v-80.730291H129.593361c-29.742739 0-55.236515-25.493776-55.236515-55.236514z m55.236515-29.742739c0 16.995851 12.746888 29.742739 29.742739 29.742739h730.821576c16.995851 0 29.742739-12.746888 29.742739-29.742739V-43.020747c0-16.995851-12.746888-29.742739-29.742739-29.742738H159.3361c-16.995851 4.248963-29.742739 16.995851-29.742739 29.742738V403.120332z"  horiz-adv-x="1024" />

    
    <glyph glyph-name="user-o" unicode="&#59919;" d="M993.429-61.695h0.075c-0.075 0.451-0.18 0.858-0.27 1.264-0.03 0.166-0.06 0.301-0.091 0.467-24.46 127.823-97.011 238.592-204.499 312.047-46.255 31.67-96.62 54.76-149.197 68.969C727.02 370.739 786.28 464.936 786.28 572.619c0 159.282-129.57 288.866-288.852 288.866S208.58 731.901 208.58 572.62c0-111.958 64.046-209.36 157.445-257.317-76.841-23.933-146.232-66.23-203.084-124.226C94.859 121.656 49.34 34.774 31.188-60.325a26.04 26.04 0 0 1-0.918-6.804c0-14.6 11.831-26.402 26.432-26.402 12.719 0 23.315 9.017 25.83 20.953l0.104-0.015c32.634 176.186 172.89 316.773 349.03 349.828a448.136 448.136 0 0 0 52.954 6.668c4.26-0.18 8.52-0.316 12.825-0.316 8.474 0 16.873 0.421 25.167 1.129 83.825-1.791 165.393-27.787 236.214-76.224 96.108-65.703 160.953-164.867 182.613-279.264 0-0.015 0-0.075 0.015-0.09 0.045-0.226 0.075-0.391 0.09-0.602h0.06c2.695-11.71 13.171-20.426 25.71-20.426 14.63 0 26.431 11.801 26.431 26.417 0 1.264-0.12 2.559-0.316 3.778z m-472.428 399.41c-12.222 0.165-24.475-0.076-36.742-0.843-124.03 6.894-222.833 110.061-222.833 235.762 0 130.141 105.877 236.033 236.003 236.033S733.463 702.76 733.463 572.634c0.015-122.179-93.354-223.088-212.462-234.92z"  horiz-adv-x="1024" />

    
    <glyph glyph-name="save-o" unicode="&#59920;" d="M861.866667 896H162.133333C85.333333 896 25.6 832 25.6 759.466667v-746.666667C25.6-64 85.333333-128 162.133333-128h699.733334c76.8 0 136.533333 64 136.533333 136.533333V759.466667C998.4 832 938.666667 896 861.866667 896zM226.133333 844.8h576v-392.533333H226.133333V844.8z m721.066667-823.466667c0-46.933333-55.466667-98.133333-98.133333-98.133333H174.933333c-46.933333 0-98.133333 55.466667-98.133333 98.133333v725.333334c0 46.933333 29.866667 98.133333 76.8 98.133333h25.6v-443.733333H853.333333V844.8h25.6c46.933333 0 76.8-55.466667 76.8-98.133333-8.533333 0-8.533333-725.333333-8.533333-725.333334zM597.333333 524.8h51.2V772.266667H597.333333v-247.466667z"  horiz-adv-x="1024" />

    
    <glyph glyph-name="thumb" unicode="&#59921;" d="M475.097 482.213c0-40.94-33.498-74.438-74.437-74.438H136.096c-40.94 0-74.437 33.498-74.437 74.438V758.04c0 40.94 33.496 74.437 74.437 74.437h264.566c40.94 0 74.437-33.497 74.437-74.437l-0.002-275.827zM475.097 9.948c0-40.94-33.498-74.435-74.437-74.435H136.096c-40.94 0-74.437 33.494-74.437 74.435V285.77c0 40.94 33.496 74.435 74.437 74.435h264.566c40.94 0 74.437-33.496 74.437-74.435l-0.002-275.822zM958.62 482.213c0-40.94-33.496-74.438-74.438-74.438H619.603c-40.942 0-74.436 33.498-74.436 74.438V758.04c0 40.94 33.496 74.437 74.436 74.437h264.581c40.94 0 74.436-33.497 74.436-74.437v-275.827zM958.624 9.948c0-40.94-33.498-74.435-74.438-74.435H619.604c-40.941 0-74.436 33.494-74.436 74.435V285.77c0 40.94 33.496 74.435 74.436 74.435h264.582c40.94 0 74.438-33.496 74.438-74.435v-275.822z"  horiz-adv-x="1024" />

    
    <glyph glyph-name="publish" unicode="&#59922;" d="M817.657 120.242L454.71 231.92l362.95 418.788L343.032 231.92 63.837 343.597 957.256 818.225 817.657 120.242zM454.71-47.275V148.16l111.674-55.84L454.71-47.274z"  horiz-adv-x="1024" />

    
    <glyph glyph-name="minus-time-o" unicode="&#59923;" d="M764.586667 329.386667H259.413333c-30.72 0-54.613333 23.893333-54.613333 54.613333 0 30.72 23.893333 54.613333 54.613333 54.613333h508.586667c30.72 0 54.613333-23.893333 54.613333-54.613333-3.413333-30.72-27.306667-54.613333-58.026666-54.613333z"  horiz-adv-x="1024" />

    
    <glyph glyph-name="replace-o" unicode="&#59924;" d="M100.061 384c0 98.018 79.745 177.763 177.763 177.763h253.964l5.856-75.058 56.694 75.058 46.376 61.398h-362.89c-63.882 0-123.94-24.878-169.113-70.048S38.663 447.883 38.663 384s24.878-123.94 70.048-169.113c45.172-45.171 105.23-70.048 169.113-70.048h1.594l46.377 61.398h-47.97c-98.02 0-177.764 79.745-177.764 177.763zM923.108 553.113c-45.172 45.171-105.231 70.048-169.113 70.048h-1.594l-46.377-61.398h47.971c98.018 0 177.763-79.745 177.763-177.763 0-98.02-79.745-177.763-177.763-177.763H501.971l-6.024 77.224-58.33-77.224h-0.133l-46.376-61.398h362.887c63.882 0 123.94 24.878 169.113 70.048C968.279 260.06 993.156 320.118 993.156 384s-24.877 123.942-70.048 169.113z"  horiz-adv-x="1024" />

    
    <glyph glyph-name="make-program" unicode="&#59925;" d="M900.693333 715.52H122.88C54.186667 715.52 0 666.88 0 607.146667v-626.346667C0-79.36 55.04-128 122.88-128h777.813333c68.266667 0 122.88 48.64 122.88 108.8V607.146667c0.426667 59.733333-54.613333 108.373333-122.88 108.373333z m-197.546666-477.866667l-270.506667-150.186666c-55.893333-31.573333-100.266667-5.973333-100.266667 55.893333V443.733333c0 60.586667 45.653333 86.186667 100.266667 55.893334l270.506667-150.186667c55.04-31.573333 55.04-81.92 0-111.786667z m262.4 562.346667H58.453333C26.453333 800 0 821.333333 0 847.786667S26.453333 896 58.453333 896h907.093334C997.546667 896 1024 874.24 1024 847.786667s-25.6-47.786667-58.453333-47.786667z"  horiz-adv-x="1024" />

    
    <glyph glyph-name="user-customize-o" unicode="&#59926;" d="M1021.495421-93.573689c0-6.384346 0-12.768693-6.384346-19.153039-6.384346-12.768693-19.153039-12.768693-31.921732-12.768693H165.993006c-12.768693-6.384346-25.537386 0-31.921732 12.768693-6.384346 6.384346-6.384346 12.768693-6.384346 19.153039V302.255787c0 19.153039 12.768693 31.921732 31.921732 31.921731 12.768693 0 25.537386-12.768693 25.537385-25.537385v-376.676436h778.890258V710.853955H536.285096c-12.768693 0-25.537386 12.768693-25.537386 31.921732 0 12.768693 12.768693 25.537386 25.537386 25.537385h453.288593c19.153039 0 31.921732-12.768693 31.921732-25.537385v-836.349376zM293.679934 493.786178h574.591174v-51.074771h-574.591174v51.074771z m0-134.071274h574.591174v-51.074771h-574.591174v51.074771z m574.591174-312.832973h-574.591174v51.074771h574.591174v-51.074771z m-574.591174 185.146045h574.591174v-51.074771h-574.591174v51.074771z m57.459117 446.904247H217.067777v-127.686928c0-12.768693-12.768693-25.537386-25.537386-25.537385s-25.537386 12.768693-25.537385 25.537385v127.686928H25.537386C12.768693 678.932223 0 691.700916 0 704.469609s12.768693 25.537386 25.537386 25.537385h134.071274v127.686928c0 12.768693 12.768693 25.537386 25.537385 25.537385s25.537386-12.768693 25.537386-25.537385v-127.686928h134.071274c12.768693 0 25.537386-12.768693 25.537385-25.537385 6.384346-12.768693-6.384346-25.537386-19.153039-25.537386z"  horiz-adv-x="1024" />

    
    <glyph glyph-name="reset-password-o" unicode="&#59927;" d="M505.6 896c134.4 0 256-44.8 352-134.4v38.4c0 12.8 12.8 25.6 25.6 25.6s25.6-12.8 25.6-25.6v-102.4c0-12.8-12.8-25.6-25.6-25.6h-102.4c-12.8 0-25.6 12.8-25.6 25.6s12.8 25.6 25.6 25.6h38.4C736 806.4 620.8 844.8 499.2 844.8 384 844.8 268.8 793.6 185.6 704 64 576 19.2 396.8 83.2 224c6.4-12.8 0-25.6-12.8-32H64c-12.8 0-19.2 6.4-25.6 19.2C0 300.8-6.4 396.8 12.8 486.4c19.2 96 64 179.2 134.4 249.6C243.2 838.4 371.2 896 505.6 896z m12.8-972.8c-121.6 0-230.4 38.4-320 121.6h38.4c12.8 0 25.6 12.8 25.6 25.6s-12.8 25.6-25.6 25.6H134.4c-12.8 0-25.6-12.8-25.6-25.6v-102.4c0-12.8 12.8-25.6 25.6-25.6s25.6 12.8 25.6 25.6v38.4C256-76.8 384-128 512-128h6.4c134.4 0 262.4 57.6 358.4 153.6 70.4 70.4 115.2 160 134.4 249.6 19.2 89.6 12.8 192-19.2 275.2 0 19.2-19.2 25.6-32 19.2-12.8-6.4-19.2-19.2-12.8-32 64-166.4 19.2-345.6-102.4-473.6-89.6-89.6-204.8-134.4-326.4-140.8z m128 588.8v-64h38.4c12.8 0 19.2-6.4 19.2-25.6v-217.6c0-12.8-12.8-25.6-25.6-25.6H345.6c-19.2 0-25.6 12.8-25.6 25.6V422.4c0 19.2 12.8 25.6 25.6 25.6H384V512c-6.4 70.4 57.6 128 128 128s134.4-57.6 134.4-128zM428.8 448h160V512c0 44.8-38.4 83.2-83.2 83.2S428.8 556.8 428.8 512v-64z m224-51.2H371.2v-166.4h288V396.8z"  horiz-adv-x="1024" />

    
    <glyph glyph-name="client-play" unicode="&#59928;" d="M852.728 503.553c104.27-66.027 104.213-173.113 0-239.103l-570.84-361.47c-104.27-66.026-188.797-23.034-188.797 95.883V769.14c0 118.98 84.584 161.873 188.798 95.882l570.839-361.47z"  horiz-adv-x="1024" />

    
    <glyph glyph-name="publish-program" unicode="&#59929;" d="M1005.017288 888.961466c-18.769423 9.384712-37.112268 9.384712-46.49698 0L27.727557 426.551135c-18.342845 0-27.727557-18.342845-27.727557-36.68569s9.384712-37.112268 18.769423-37.112269l223.526765-138.637783c18.769423-9.384712 37.112268-9.384712 55.881692 9.384711l493.123932 443.640908 18.769423-9.384711L363.017705 186.387836c-9.384712-9.384712-9.384712-18.342845-9.384712-27.727557v-203.477609c0-18.342845 9.384712-37.112268 27.727557-46.070402 18.769423-9.384712 37.112268 0 46.49698 9.384712l111.763382 110.910227 223.526766-148.022495c9.384712-9.384712 18.769423-9.384712 28.154134-9.384712h18.769423c18.769423 9.384712 27.727557 18.342845 27.727557 37.112268L1023.786711 833.506353c0 27.727557 0 46.070402-18.769423 55.455113z"  horiz-adv-x="1024" />

    
    <glyph glyph-name="client-outline" unicode="&#59930;" d="M512 889.6C233.6 889.6 6.4 662.4 6.4 384S233.6-121.6 512-121.6 1017.6 105.6 1017.6 384 790.4 889.6 512 889.6z m217.6-649.6l-73.6-73.6-144 144-144-144-73.6 73.6 144 144-144 144 73.6 73.6 144-144 144 144 73.6-73.6-144-144 144-144z"  horiz-adv-x="1024" />

    
    <glyph glyph-name="client-sleep" unicode="&#59931;" d="M574.381471 478.121481c8.504979-20.411949 28.349929-33.452916 50.462873-33.452917h341.900143a54.431864 54.431864 0 0 1 0 108.863728h-210.923471l249.479375 249.479374a54.998862 54.998862 0 0 1 11.90697 59.534851 54.431864 54.431864 0 0 1-50.462874 33.452916H627.112339c-30.050925 0-54.431864-24.380939-54.431864-54.431864s24.380939-54.998862 54.431864-54.998862h208.088478l-249.479375-249.479374c-15.308962-15.308962-19.84495-38.555903-11.339971-58.967852zM969.57948 187.818208c-52.730868-18.143955-108.863727-27.78293-167.26458-27.78293-283.499289 0-513.700712 230.201423-513.700713 513.700712 0 58.400854 9.638976 115.100711 27.782931 167.264581a10.205974 10.205974 0 0 1-14.174965 12.473969A511.999717 511.999717 0 0 1 0.011911 385.700712c0-283.499289 230.201423-513.700712 513.700712-513.700712a514.267711 514.267711 0 0 1 468.340826 302.210242c3.96899 7.93798-3.96899 16.442959-12.473969 13.607966z"  horiz-adv-x="1024" />

    
    <glyph glyph-name="client-offlinemoreday" unicode="&#59932;" d="M851.2 444.8H1024V320h-172.8v-153.6l-204.8 118.4V480l204.8 115.2v-150.4z m-208-249.6l134.4-80V-32h-134.4v227.2z m0 665.6L576 873.6 476.8 889.6h313.6l-3.2-240-140.8-80c-3.2 0-3.2 291.2-3.2 291.2z m-83.2-985.6L22.4-32 9.6 889.6l550.4-92.8v-921.6z"  horiz-adv-x="1024" />

    
    <glyph glyph-name="user-domain-o" unicode="&#59933;" d="M198.4 697.6c38.4 38.4 89.6 70.4 140.8 96C390.4 819.2 454.4 832 512 832c57.6 0 121.6-12.8 172.8-32 51.2-25.6 102.4-57.6 140.8-96 38.4-38.4 70.4-70.4 96-128h57.6c-25.6 76.8-64 128-108.8 172.8C825.6 793.6 768 832 710.4 857.6 646.4 883.2 582.4 896 512 896S377.6 883.2 313.6 857.6c-64-25.6-115.2-64-160-108.8C102.4 697.6 64 646.4 44.8 576h57.6c19.2 51.2 51.2 83.2 96 121.6z m627.2-627.2c-38.4-38.4-89.6-70.4-140.8-96-57.6-25.6-115.2-32-172.8-32s-121.6 12.8-172.8 32c-51.2 25.6-102.4 57.6-140.8 96-38.4 38.4-70.4 70.4-96 121.6H44.8c25.6-57.6 64-121.6 108.8-166.4 44.8-44.8 102.4-83.2 160-108.8 64-25.6 128-38.4 198.4-38.4s134.4 12.8 198.4 38.4c57.6 25.6 115.2 64 160 108.8s83.2 108.8 108.8 166.4h-64c-19.2-51.2-44.8-83.2-89.6-121.6zM134.4 256l38.4 172.8 38.4-172.8h57.6l70.4 256 70.4-256h57.6L512 428.8l38.4-172.8h57.6l70.4 256 70.4-256h57.6l38.4 172.8 38.4-172.8h57.6L1024 512h-57.6l-44.8-166.4-38.4 166.4h-57.6l-38.4-166.4-44.8 166.4H620.8l-38.4-166.4L544 512h-64l-38.4-166.4L403.2 512H281.6l-44.8-166.4L198.4 512h-57.6l-38.4-166.4L57.6 512H0l70.4-256h64z"  horiz-adv-x="1024" />

    
    <glyph glyph-name="client-stop" unicode="&#59934;" d="M512-128C230.4-128 0 102.4 0 384S230.4 896 512 896s512-230.4 512-512-230.4-512-512-512zM256 470.4c-48 0-86.4-38.4-86.4-86.4s38.4-86.4 86.4-86.4h512c48 0 86.4 38.4 86.4 86.4s-38.4 86.4-86.4 86.4H256z"  horiz-adv-x="1024" />

    
    <glyph glyph-name="view-device" unicode="&#59935;" d="M736.426667 896h-251.306667c-30.72 0-53.76-23.04-53.76-52.906667v-811.946666H359.253333V843.093333C359.253333 871.253333 335.786667 896 305.066667 896H53.76C23.04 896 0 872.96 0 843.093333v-918.186666c0-28.16 23.466667-52.906667 53.76-52.906667h251.306667c30.72 0 53.76 23.04 53.76 52.906667v35.413333h71.68v-35.413333c0-28.16 23.466667-52.906667 53.76-52.906667h251.306666c30.72 0 53.76 23.04 53.76 52.906667V843.093333C790.186667 872.96 766.72 896 736.426667 896zM161.28-39.68H89.6v70.826667h71.68v-70.826667zM269.226667 737.28H89.6V807.68h179.626667v-70.4z m323.413333-776.96h-71.68v70.826667h71.68v-70.826667z m107.946667 776.96h-179.626667V807.68h179.626667v-70.4zM971.52-128c-28.586667 0-52.053333 23.04-52.053333 51.2V844.8c0 28.16 23.466667 51.2 52.053333 51.2 28.586667 0 52.053333-23.04 52.053333-51.2v-921.6c0.426667-28.16-23.04-51.2-52.053333-51.2z"  horiz-adv-x="1025" />

    
    <glyph glyph-name="menu-content-o" unicode="&#59936;" d="M512 349.867c-3.413 0-10.24 0-13.653 3.413L54.613 558.08c-13.653 6.827-20.48 17.067-20.48 30.72s6.827 23.893 20.48 30.72l443.734 204.8c10.24 3.413 20.48 3.413 27.306 0l443.734-204.8c13.653-6.827 20.48-17.067 20.48-30.72s-6.827-23.893-20.48-30.72l-443.734-204.8c-3.413-3.413-10.24-3.413-13.653-3.413zM150.187 588.8L512 421.547 873.813 588.8 512 756.053 150.187 588.8zM512 145.067c-3.413 0-10.24 0-13.653 3.413L54.613 353.28c-17.066 6.827-23.893 27.307-17.066 44.373 6.826 17.067 27.306 23.894 44.373 17.067L512 216.747 942.08 414.72c17.067 6.827 37.547 0 44.373-17.067 6.827-17.066 0-37.546-17.066-44.373l-443.734-204.8c-3.413-3.413-10.24-3.413-13.653-3.413zM512-59.733c-3.413 0-10.24 0-13.653 3.413L54.613 148.48c-17.066 6.827-23.893 27.307-17.066 44.373 6.826 17.067 27.306 23.894 44.373 17.067L512 11.947 942.08 209.92c17.067 6.827 37.547 0 44.373-17.067 6.827-17.066 0-37.546-17.066-44.373l-443.734-204.8c-3.413-3.413-10.24-3.413-13.653-3.413z"  horiz-adv-x="1024" />

    
    <glyph glyph-name="menu-client-o" unicode="&#59937;" d="M960 64V896H512v-832h192v-128H256V64h192V896H0v-832h192v-128H0v-64h960v64H768V64h192zM64 128V832h320v-704H64z m512 0V832h320v-704H576zM256 320h64v-64h-64v64z m512 0h64v-64h-64v64z"  horiz-adv-x="1024" />

    
    <glyph glyph-name="homepage" unicode="&#59938;" d="M870.4 748.088889l5.688889-261.688889h-261.688889-5.688889V742.4h261.688889m-466.488889 5.688889c5.688889 0 5.688889 0 0 0l5.688889-261.688889H147.911111h-5.688889V742.4h261.688889m466.488889-443.733333l5.688889-261.688889h-261.688889-5.688889v261.688889h261.688889m-466.488889 0c5.688889 0 5.688889 0 0 0l5.688889-261.688889H147.911111h-5.688889v261.688889h261.688889m466.488889 517.688889h-256c-39.822222 0-73.955556-34.133333-73.955556-68.266667v-261.688889c0-39.822222 34.133333-68.266667 73.955556-68.266667h256c39.822222 0 73.955556 34.133333 73.955556 68.266667V742.4c-5.688889 39.822222-34.133333 73.955556-73.955556 73.955556z m-466.488889 0H153.6c-39.822222 0-73.955556-34.133333-73.955556-73.955556v-261.688889c0-39.822222 34.133333-68.266667 73.955556-68.266667h256c39.822222 0 73.955556 34.133333 73.955556 68.266667V742.4c-5.688889 39.822222-39.822222 73.955556-79.644445 73.955556z m466.488889-449.422223h-256c-39.822222 0-73.955556-34.133333-73.955556-68.266666v-261.688889c0-39.822222 34.133333-68.266667 73.955556-68.266667h256c39.822222 0 73.955556 34.133333 73.955556 68.266667v261.688889c-5.688889 39.822222-34.133333 68.266667-73.955556 68.266666z m-466.488889 0H153.6c-39.822222 0-73.955556-34.133333-73.955556-68.266666v-261.688889c0-39.822222 34.133333-68.266667 73.955556-68.266667h256c39.822222 0 73.955556 34.133333 73.955556 68.266667v261.688889c-5.688889 39.822222-39.822222 68.266667-79.644445 68.266666z"  horiz-adv-x="1024" />

    
    <glyph glyph-name="menu-material-o" unicode="&#59939;" d="M506 1.8a33 32.9 0 1 1 66 0 33 32.9 0 1 1-66 0zM864 507.3v4.4c0 70.7-57.3 128-128 128H511.8l-82.5 110.9c-7.4 12.9-18 16.2-27.3 16l-0.1 0.1H192.1c-70.7 0-128-57.3-128-128v-542.1c0-70.7 57.3-128 128-128H407v0.4c18.2 0 33 14.7 33 32.9s-14.8 32.9-33 32.9c-1 0-2.1-0.1-3.1-0.1h-181c-35.3 0-64 28.7-64 64 0 5.5 0.7 10.9 2 16L234 397.1l0.2 0.1c6.7 28.1 31.9 49 62.1 49.1l0.2 0.1h532.2c1.3 0.1 2.5 0.1 3.8 0.1 35.3 0 64-28.7 64-64 0-6.7-1.1-13.3-3-19.4v-0.1L821 83.2c-0.1-0.6-0.3-1.1-0.4-1.7l-1.5-5.8-0.5-0.4c-1.5-3.9-3.4-7.5-5.5-11h-1.3c-2.6-4.7-5.8-9.1-9.5-12.9-11.4-10.6-26.7-17.1-43.4-17.1-1.3 0-2.6 0-3.8 0.1h-80.8c-1 0.1-2.1 0.1-3.1 0.1-18.2 0-33-14.7-33-32.9s14.8-32.9 33-32.9v-0.2H763l0.5 0.4c59.1 0.2 108.7 40.4 123.2 95l0.2 0.2 67.8 285.5c2.9 10.8 4.5 22.1 4.5 33.8-0.1 59.5-40.5 109.5-95.2 123.9z m-571.5 4.9c-62 0-113.7-44.2-125.5-102.7l-0.5-0.4-38-160.3V639c0 35.3 28.7 64 64 64H383l82.7-111.3c6.6-11.4 19.2-17.2 31.5-15.8h238.5c35.2 0 63.8-28.5 64-63.7H292.5z"  horiz-adv-x="1024" />

    
    <glyph glyph-name="menu-setting-o" unicode="&#59940;" d="M506.311111 560.355556C409.6 560.355556 329.955556 480.711111 329.955556 384s79.644444-170.666667 176.355555-170.666667c17.066667 0 39.822222 5.688889 56.888889 11.377778 17.066667 5.688889 22.755556 22.755556 17.066667 39.822222-5.688889 17.066667-22.755556 22.755556-39.822223 17.066667-5.688889-5.688889-17.066667-11.377778-34.133333-11.377778-62.577778 0-113.777778 51.2-113.777778 113.777778s51.2 113.777778 113.777778 113.777778 113.777778-51.2 113.777778-113.777778v-22.755556c0-5.688889 0-5.688889-5.688889-11.377777-5.688889-17.066667 5.688889-34.133333 17.066667-39.822223 17.066667-5.688889 34.133333 5.688889 39.822222 17.066667 0 5.688889 5.688889 11.377778 5.688889 17.066667 5.688889 17.066667 5.688889 28.444444 5.688889 45.511111 0 96.711111-79.644444 170.666667-176.355556 170.666667zM955.733333 463.644444c0 11.377778-11.377778 22.755556-28.444444 22.755556-51.2 5.688889-91.022222 28.444444-113.777778 73.955556-22.755556 39.822222-28.444444 91.022222-5.688889 136.533333 5.688889 17.066667 0 28.444444-11.377778 39.822222-39.822222 34.133333-85.333333 56.888889-136.533333 79.644445-11.377778 5.688889-28.444444 0-34.133333-11.377778-28.444444-39.822222-73.955556-62.577778-119.466667-62.577778-51.2 0-91.022222 22.755556-119.466667 62.577778-5.688889 5.688889-22.755556 11.377778-34.133333 5.688889-51.2-17.066667-96.711111-45.511111-136.533333-73.955556-11.377778-11.377778-11.377778-22.755556-5.688889-39.822222 22.755556-45.511111 22.755556-96.711111-5.688889-136.533333-22.755556-39.822222-68.266667-68.266667-113.777778-73.955556-11.377778 0-22.755556-11.377778-28.444444-22.755556-5.688889-28.444444-5.688889-51.2-5.688889-73.955555s0-51.2 5.688889-79.644445c0-11.377778 11.377778-22.755556 28.444444-22.755555 51.2-5.688889 91.022222-28.444444 113.777778-73.955556 22.755556-39.822222 28.444444-91.022222 5.688889-136.533333-5.688889-11.377778-5.688889-28.444444 5.688889-34.133333 39.822222-34.133333 85.333333-56.888889 136.533333-79.644445 11.377778-5.688889 28.444444 0 34.133333 11.377778 28.444444 39.822222 73.955556 62.577778 119.466667 62.577778 51.2 0 91.022222-22.755556 119.466667-62.577778 5.688889-5.688889 17.066667-11.377778 22.755555-11.377778h11.377778c51.2 17.066667 96.711111 45.511111 136.533333 79.644445 11.377778 11.377778 11.377778 22.755556 5.688889 34.133333-22.755556 45.511111-17.066667 96.711111 5.688889 136.533333s68.266667 68.266667 113.777778 73.955556c11.377778 0 22.755556 11.377778 28.444444 22.755555 5.688889 28.444444 5.688889 51.2 5.688889 79.644445 5.688889 22.755556 5.688889 45.511111 0 73.955555z m-56.888889-125.155555c-56.888889-11.377778-108.088889-45.511111-142.222222-96.711111-28.444444-51.2-34.133333-113.777778-17.066666-170.666667-22.755556-17.066667-51.2-34.133333-79.644445-45.511111C625.777778 71.111111 568.888889 99.555556 506.311111 99.555556s-113.777778-28.444444-153.6-73.955556c-28.444444 11.377778-56.888889 28.444444-79.644444 45.511111 17.066667 56.888889 17.066667 119.466667-17.066667 170.666667-28.444444 51.2-79.644444 85.333333-136.533333 96.711111-5.688889 17.066667-5.688889 34.133333-5.688889 51.2 0 17.066667 0 28.444444 5.688889 45.511111 56.888889 11.377778 108.088889 45.511111 142.222222 96.711111 28.444444 51.2 34.133333 113.777778 17.066667 170.666667 22.755556 17.066667 51.2 34.133333 79.644444 45.511111C398.222222 702.577778 455.111111 674.133333 512 674.133333c62.577778 0 113.777778 28.444444 153.6 73.955556 28.444444-11.377778 56.888889-28.444444 79.644444-45.511111-22.755556-56.888889-17.066667-119.466667 17.066667-170.666667 28.444444-51.2 79.644444-85.333333 142.222222-96.711111 0-17.066667 5.688889-34.133333 5.688889-45.511111-5.688889-17.066667-11.377778-34.133333-11.377778-51.2z"  horiz-adv-x="1024" />

    
    <glyph glyph-name="menu-log-o" unicode="&#59941;" d="M208.736 329.664H64.384v-59.328h144.352v59.328z m0 336.096H165.44V821.408c0 7.968 4.896 14.848 10.464 14.848H677.92V895.552H175.936c-38.72-1.248-69.248-34.368-68.192-74.144V665.76h-43.36v-59.36h144.352v59.36z m0-168.096H64.384v-59.328h144.352v59.328z m714.656-76.576h-57.76v-474.496c0-7.936-4.896-14.848-10.464-14.848H175.936c-5.568 0-10.464 6.912-10.464 14.848v155.68h43.296v59.296H64.384v-59.296h43.328v-155.68c-1.024-39.776 29.472-72.896 68.192-74.144h679.232c38.72 1.184 69.248 34.368 68.256 74.144V421.088z m14.944 290.336l-83.072 85.312a71.264 71.264 0 0 1-52.544 21.728 71.52 71.52 0 0 1-51.616-23.872L386.528 388.736a30.496 30.496 0 0 1-6.176-10.72L308.16 155.488a30.016 30.016 0 0 1 6.976-30.24c7.712-7.968 19.2-10.752 29.568-7.2l216.544 74.112a28.736 28.736 0 0 1 12.128 7.936l367.072 408.448a75.552 75.552 0 0 1-2.112 102.88z m-557.12-518.272l39.104 120.64 78.336-80.416-117.44-40.224z m170.048 70.016L447.712 369.184l200.16 222.4 103.52-106.304-200.128-222.112z m346.688 385.76l-0.256-0.224L790.56 529.536 687.04 636.064l106.432 118.624a14.144 14.144 0 0 0 10.304 4.736 13.44 13.44 0 0 0 10.464-4.288l83.264-85.696c5.472-5.6 5.664-14.72 0.448-20.512z"  horiz-adv-x="1024" />

    
    <glyph glyph-name="client-exception" unicode="&#59942;" d="M892.8-67.2c99.2 0 140.8 70.4 92.8 160L598.4 758.4c-51.2 86.4-131.2 86.4-182.4 0L32 89.6c-51.2-86.4-9.6-160 92.8-156.8h768z m-384 656c41.6 0 70.4-83.2 67.2-182.4-3.2-99.2-6.4-182.4-9.6-182.4h-112c-3.2 0-9.6 83.2-9.6 182.4-6.4 102.4 22.4 182.4 64 182.4z m-67.2-480c0 38.4 32 70.4 70.4 70.4s70.4-32 70.4-70.4c0-38.4-32-70.4-70.4-70.4-38.4-3.2-70.4 28.8-70.4 70.4z"  horiz-adv-x="1024" />

    
    <glyph glyph-name="material-add" unicode="&#59943;" d="M832 832H256c-70.656 0-128-57.344-128-128v-576c0-70.656 57.344-128 128-128h576c70.656 0 128 57.344 128 128V704c0 70.656-57.344 128-128 128z m-32-448H576v-224c0-17.664-14.336-32-32-32s-32 14.336-32 32V384H288c-17.664 0-32 14.336-32 32s14.336 32 32 32h224V672c0 17.664 14.336 32 32 32s32-14.336 32-32v-224h224c17.664 0 32-14.336 32-32s-14.336-32-32-32zM672-64H128c-35.392 0-64 28.608-64 64V544c0 17.664-14.336 32-32 32S0 561.664 0 544v-544c0-70.656 57.344-128 128-128h544c17.664 0 32 14.336 32 32s-14.336 32-32 32z"  horiz-adv-x="1024" />

    
    <glyph glyph-name="material-excel-o" unicode="&#59944;" d="M922.20992-128H96.60992C39.00992-128 0.60992-89.6 0.60992-32v832C-5.79008 851.2 39.00992 896 96.60992 896H768.60992c12.8 0 38.4-12.8 38.4-38.4s-19.2-38.4-38.4-38.4H96.60992c-12.8 0-25.6-6.4-25.6-25.6v-832c0-12.8 6.4-25.6 25.6-25.6h838.4c12.8 0 25.6 6.4 25.6 25.6V627.2c0 12.8 12.8 32 38.4 32 6.4-6.4 25.6-19.2 25.6-44.8v-659.2c0-38.4-44.8-83.2-102.4-83.2zM979.80992 595.2h-224c-12.8 0-32 12.8-32 32V851.2c0 12.8 6.4 25.6 25.6 32 12.8 6.4 44.8 0 51.2-6.4l211.2-224c6.4-6.4 19.2-19.2 12.8-38.4-12.8 0-25.6-19.2-44.8-19.2z m-185.6 76.8H896.60992l-102.4 102.4v-102.4zM371.80992 179.2V352h294.4v64H371.80992V563.2h294.4V633.6H301.40992V115.2h384v64z"  horiz-adv-x="1026" />

    
    <glyph glyph-name="material-download-list" unicode="&#59945;" d="M508.986 46.956a55.55 55.55 0 0 0-41.865 18.245L134.8 441.341a55.387 55.387 0 0 0 41.54 92.04h86.664V840.125A56.038 56.038 0 0 0 318.88 896h360.013a56.038 56.038 0 0 0 56.038-55.875V533.38h106.863a55.387 55.387 0 0 0 41.54-92.04l-332.97-376.14a55.55 55.55 0 0 0-41.378-18.57zM176.341 484.51a6.027 6.027 0 0 1-5.864-3.746 6.19 6.19 0 0 1 0.977-7.005l332.645-375.977a5.864 5.864 0 0 1 9.774 0L846.52 473.759a6.19 6.19 0 0 1 0.977 7.005 6.027 6.027 0 0 1-5.864 3.746H710.496a24.435 24.435 0 0 0-24.436 24.436V840.125a7.168 7.168 0 0 1-7.167 7.004H318.88a7.005 7.005 0 0 1-7.005-7.004v-331.18a24.435 24.435 0 0 0-24.435-24.435zM882.683-128H141.317a32.58 32.58 0 0 0 0 65.16h741.366a32.58 32.58 0 1 0 0-65.16z"  horiz-adv-x="1024" />

    
    <glyph glyph-name="material-checkall" unicode="&#59946;" d="M966.4 896H243.2c-32 0-64-32-64-57.6v-723.2c0-32 32-57.6 57.6-57.6H960c32 0 57.6 32 57.6 57.6V838.4c6.4 25.6-25.6 57.6-51.2 57.6z m-64-294.4L588.8 288c-19.2-19.2-38.4-19.2-57.6-6.4-6.4 0-6.4 6.4-6.4 6.4L339.2 467.2c-19.2 19.2-19.2 44.8 0 64 19.2 19.2 44.8 19.2 64 0l153.6-153.6 288 288c19.2 19.2 44.8 19.2 64 0 12.8-19.2 12.8-44.8-6.4-64zM716.8-57.6H134.4c-38.4 0-70.4 32-70.4 70.4v576c0 19.2-12.8 32-32 32s-32-12.8-32-32v-582.4C0-64 64-128 134.4-128h582.4c19.2 0 32 12.8 32 32s-12.8 38.4-32 38.4z"  horiz-adv-x="1024" />

    
    <glyph glyph-name="material-copy" unicode="&#59947;" d="M640-64H192c-32 0-64 25.6-64 64V576c0 38.4 32 64 64 64v64c-70.4 0-128-57.6-128-128v-576c0-70.4 57.6-128 128-128h448c70.4 0 128 57.6 128 128h-64c0-32-32-64-64-64zM704 896H384c-70.4 0-128-57.6-128-128v-576c0-70.4 57.6-128 128-128h448c70.4 0 128 57.6 128 128V640L704 896z m-96-768H352c-19.2 0-32 12.8-32 32s12.8 32 32 32h256c19.2 0 32-12.8 32-32s-12.8-32-32-32z m192 128H352c-19.2 0-32 12.8-32 32s12.8 32 32 32h448c19.2 0 32-12.8 32-32s-12.8-32-32-32z m0 128H352c-19.2 0-32 12.8-32 32s12.8 32 32 32h448c19.2 0 32-12.8 32-32s-12.8-32-32-32z m-96 256V800l160-160H704z"  horiz-adv-x="1024" />

    
    <glyph glyph-name="material-rss-add" unicode="&#59948;" d="M339.2 128c0 25.6-12.8 44.8-25.6 57.6s-38.4 25.6-64 25.6c-44.8 0-83.2-38.4-83.2-83.2 0-25.6 12.8-44.8 25.6-57.6s32-25.6 57.6-25.6c51.2 0 89.6 38.4 89.6 83.2zM576 64c-6.4 102.4-44.8 192-115.2 262.4S300.8 441.6 192 448c-6.4 0-12.8 0-12.8-6.4s-6.4-12.8-6.4-12.8v-83.2c0-6.4 0-6.4 6.4-19.2 0 0 6.4-6.4 12.8-6.4 70.4-6.4 128-32 179.2-83.2S441.6 134.4 448 64c0-6.4 6.4-6.4 6.4-12.8 6.4-6.4 12.8-6.4 19.2-6.4h83.2c6.4 0 6.4 6.4 19.2 6.4-6.4 6.4 0 6.4 0 12.8z m256 0c-6.4 70.4-19.2 134.4-38.4 198.4s-57.6 121.6-96 172.8c-38.4 51.2-83.2 96-134.4 140.8-51.2 38.4-108.8 70.4-172.8 89.6-64 25.6-128 38.4-198.4 38.4-6.4 0-12.8 0-19.2-6.4 0 0-6.4-12.8-6.4-19.2v-83.2c0-6.4 0-12.8 6.4-19.2 6.4 6.4 12.8 0 19.2 0 89.6-6.4 179.2-25.6 256-76.8 70.4-44.8 134.4-102.4 185.6-179.2 51.2-76.8 70.4-160 70.4-249.6 0-6.4 6.4-6.4 6.4-19.2 6.4-6.4 6.4-6.4 19.2-6.4h89.6c6.4 0 6.4 6.4 19.2 6.4-6.4 6.4-6.4 6.4-6.4 12.8z m192 640v-640c0-57.6-19.2-102.4-57.6-134.4-32-38.4-76.8-57.6-134.4-57.6H192c-51.2 0-96 19.2-134.4 57.6S0 6.4 0 64V704C0 755.2 19.2 800 57.6 838.4S140.8 896 192 896h640c57.6 0 102.4-19.2 134.4-57.6 38.4-38.4 57.6-83.2 57.6-134.4z"  horiz-adv-x="1024" />

    
    <glyph glyph-name="material-pdf-o" unicode="&#59949;" d="M922.20992-128H96.60992C39.00992-128 0.60992-89.6 0.60992-32v832C-5.79008 851.2 39.00992 896 96.60992 896H768.60992c12.8 0 38.4-12.8 38.4-38.4s-19.2-38.4-38.4-38.4H96.60992c-12.8 0-25.6-6.4-25.6-25.6v-832c0-12.8 6.4-25.6 25.6-25.6h838.4c12.8 0 25.6 6.4 25.6 25.6V627.2c0 12.8 12.8 32 38.4 32 6.4-6.4 25.6-19.2 25.6-44.8v-659.2c0-38.4-44.8-83.2-102.4-83.2zM979.80992 595.2h-224c-12.8 0-32 12.8-32 32V851.2c0 12.8 6.4 25.6 25.6 32 12.8 6.4 44.8 0 51.2-6.4l211.2-230.4c6.4-6.4 12.8-25.6 6.4-38.4-6.4 0-19.2-12.8-38.4-12.8z m-185.6 76.8H896.60992l-102.4 102.4v-102.4zM743.00992 192c-44.8 0-96 25.6-134.4 51.2-76.8-12.8-147.2-38.4-217.6-70.4-51.2-102.4-108.8-147.2-153.6-147.2-6.4 0-25.6 0-32 6.4-25.6 6.4-32 32-32 44.8 0 12.8 0 64 179.2 140.8 44.8 70.4 76.8 140.8 102.4 217.6-19.2 51.2-64 160-38.4 211.2 12.8 12.8 38.4 32 64 25.6 12.8 0 38.4-6.4 44.8-25.6 25.6-32 19.2-102.4-12.8-198.4 32-51.2 70.4-102.4 115.2-140.8 38.4 0 76.8 6.4 115.2 6.4 83.2 0 102.4-38.4 96-64 0-57.6-64-57.6-96-57.6z m-505.6-115.2c32 6.4 51.2 32 64 51.2-19.2-6.4-44.8-32-64-51.2z m243.2 537.6h-12.8c-6.4-32 0-64 6.4-96 12.8 38.4 12.8 70.4 6.4 96z m12.8-256c-25.6-44.8-38.4-83.2-64-134.4 38.4 12.8 83.2 32 121.6 38.4h6.4c-19.2 38.4-44.8 70.4-64 96z m243.2-96h-44.8c12.8-6.4 38.4-12.8 51.2-12.8h38.4s-6.4 12.8-44.8 12.8z"  horiz-adv-x="1024" />

    
    <glyph glyph-name="material-video-o" unicode="&#59950;" d="M356.173913 69.167702c6.360248 0 12.720497-6.360248 19.080745-6.360249 6.360248 0 12.720497 0 19.080746 6.360249l267.130435 165.366459c12.720497 6.360248 19.080745 19.080745 19.080745 31.801243s-6.360248 25.440994-19.080745 31.801242L394.335404 463.503106c-12.720497 6.360248-25.440994 6.360248-38.161491 0-6.360248-6.360248-12.720497-12.720497-12.720497-31.801243v-337.093167c0-6.360248 6.360248-19.080745 12.720497-25.440994z m57.242236 298.931677L578.782609 259.975155l-165.36646-101.763975V368.099379zM928.596273 896H89.043478C38.161491 896 0 857.838509 0 806.956522v-845.913044c0-50.881988 38.161491-89.043478 89.043478-89.043478h839.552795c50.881988 0 89.043478 38.161491 89.043479 89.043478V806.956522c0 50.881988-38.161491 89.043478-89.043479 89.043478zM572.42236 826.037267l165.36646-190.807453H591.503106l-165.36646 190.807453H572.42236z m-235.329192 0l165.366459-190.807453H349.813665l-165.36646 190.807453h152.645963z m-267.130435-19.080745c0 12.720497 6.360248 19.080745 19.080745 19.080745h6.360249l165.366459-190.807453h-190.807453V806.956522z m877.714286-845.913044c0-12.720497-6.360248-19.080745-19.080746-19.080745H89.043478c-12.720497 0-19.080745 6.360248-19.080745 19.080745V571.627329h877.714286v-610.583851z m0 674.186336H826.832298l-159.006211 190.807453h260.770186c12.720497 0 19.080745-6.360248 19.080746-19.080745v-171.726708z"  horiz-adv-x="1024" />

    
    <glyph glyph-name="material-picture-o" unicode="&#59951;" d="M128 896C57.312 896 0 838.688 0 768v-768c0-70.688 57.312-128 128-128h768c70.688 0 128 57.312 128 128V768c0 70.688-57.312 128-128 128H128z m128-128c70.688 0 128-57.312 128-128s-57.312-128-128-128-128 57.312-128 128 57.312 128 128 128z m0-192c35.328 0 64 28.672 64 64s-28.672 64-64 64-64-28.672-64-64 28.672-64 64-64zM64 0v30.048l206.42 184.881c26.41 23.655 67.95 22.703 93.242-2.587L640.032-64H128c-35.328 0-64 28.672-64 64z m832-64H730.624L494.848 174.88l228.047 228.047c24.91 24.91 65.652 24.558 90.606-0.396L960 256.032V0c0-35.328-28.672-64-64-64zM64 107.82V767.734C64 803.227 92.797 832 128.438 832h767.124C931.15 832 960 802.904 960 768.134v-424.657l-148.151 135.55c-26.133 23.91-67.666 23.126-93.078-2.06L454.406 214.944l-87.633 75.456c-26.682 22.975-70.007 22.486-96.174-0.567L64 107.82z"  horiz-adv-x="1024" />

    
    <glyph glyph-name="material-music-o" unicode="&#59952;" d="M179.2-128C81.455-128 0-48.873 0 51.2s79.127 179.2 179.2 179.2c39.564 0 76.8-13.964 109.382-37.236l9.309-6.982V761.018c0 34.91 27.927 62.837 60.509 62.837L956.51 893.673h4.654C993.745 896 1024 868.073 1024 833.163v-672.581c0-48.873-18.618-93.091-53.527-125.673-32.582-32.582-79.128-51.2-125.673-51.2-97.745 0-179.2 79.127-179.2 179.2 0 97.746 79.127 179.2 179.2 179.2 39.564 0 79.127-13.964 109.382-37.236l9.309-6.982V609.745L358.4 544.582V51.2c-2.327-100.073-81.455-179.2-179.2-179.2z m0 295.564c-65.164 0-118.69-53.528-118.69-118.691s53.526-118.691 118.69-118.691 118.69 53.527 118.69 118.69c-2.326 67.492-53.526 118.692-118.69 118.692z m665.6 111.709c-65.164 0-118.69-53.528-118.69-118.691S779.635 41.89 844.8 41.89s118.69 53.527 118.69 118.69-53.526 118.692-118.69 118.692zM356.073 605.09l605.09 65.164V835.49l-598.108-69.818h-6.982V605.09z"  horiz-adv-x="1024" />

    
    <glyph glyph-name="material-live-o" unicode="&#59953;" d="M502.7-53.8c-242.1 0-439.1 197-439.1 439.1 0 242.1 197 439.1 439.1 439.1 242.1 0 439.1-197 439.1-439.1 0-242.2-196.9-439.1-439.1-439.1z m0 844.6c-223.6 0-405.5-181.9-405.5-405.5s181.9-405.5 405.5-405.5 405.5 181.9 405.5 405.5c0.1 223.6-181.9 405.5-405.5 405.5zM502.7 507.4c-64.8 0-117.5 52.7-117.5 117.5S438 742.3 502.7 742.3s117.5-52.7 117.5-117.5-52.7-117.4-117.5-117.4z m0 201.3c-46.3 0-83.9-37.6-83.9-83.9s37.6-83.9 83.9-83.9 83.9 37.6 83.9 83.9-37.6 83.9-83.9 83.9z m0-681.5c-64.8 0-117.5 52.7-117.5 117.5S438 262.1 502.7 262.1s117.5-52.7 117.5-117.5-52.7-117.4-117.5-117.4z m0 201.4c-46.3 0-83.9-37.6-83.9-83.9s37.6-83.9 83.9-83.9 83.9 37.6 83.9 83.9-37.6 83.9-83.9 83.9z m-237.8 39.2c-64.8 0-117.5 52.7-117.5 117.5s52.7 117.5 117.5 117.5S382.3 450 382.3 385.3s-52.7-117.5-117.4-117.5z m0 201.4c-46.3 0-83.9-37.6-83.9-83.9s37.6-83.9 83.9-83.9 83.9 37.6 83.9 83.9-37.7 83.9-83.9 83.9z m483.6-201.4c-64.8 0-117.5 52.7-117.5 117.5s52.7 117.5 117.5 117.5S866 450 866 385.3s-52.7-117.5-117.5-117.5z m0 201.4c-46.3 0-83.9-37.6-83.9-83.9s37.6-83.9 83.9-83.9c46.3 0 83.9 37.6 83.9 83.9s-37.6 83.9-83.9 83.9z m194.4-522.8H501c-9.3 0-16.8 7.5-16.8 16.8S491.7-20 501-20h441.9c9.3 0 16.8-7.5 16.8-16.8s-7.5-16.8-16.8-16.8z"  horiz-adv-x="1024" />

    
    <glyph glyph-name="upload-pause" unicode="&#59954;" d="M512 896C229.6 896 0 666.4 0 384s229.6-512 512-512 512 229.6 512 512S794.4 896 512 896z m-76-702.4c0-28-22.4-51.2-51.2-51.2-28 0-51.2 22.4-51.2 51.2V574.4c0 28 22.4 50.4 51.2 51.2 28 0 50.4-22.4 51.2-51.2v-380.8z m253.6 0c0-28-22.4-51.2-51.2-51.2-28 0-51.2 22.4-51.2 51.2V574.4c0 28 22.4 50.4 51.2 51.2 28 0 50.4-22.4 51.2-51.2v-380.8z"  horiz-adv-x="1024" />

    
    <glyph glyph-name="material-word-o" unicode="&#59955;" d="M921.6-128H102.4C51.2-128 0-89.6 0-25.6V793.6C0 838.4 38.4 896 102.4 896H768c12.8 0 38.4-12.8 38.4-38.4s-12.8-38.4-38.4-38.4H102.4c-25.6 0-32-12.8-32-32v-825.6c0-25.6 12.8-25.6 32-25.6h819.2c25.6 0 25.6 12.8 25.6 25.6V627.2c0 12.8 12.8 38.4 38.4 38.4 25.6 0 38.4-12.8 38.4-38.4v-665.6c-6.4-44.8-38.4-89.6-102.4-89.6zM217.6 537.6h76.8l83.2-332.8 83.2 332.8h70.4l83.2-332.8 96 332.8h76.8l-121.6-435.2H588.8L505.6 435.2l-83.2-332.8H339.2L217.6 537.6zM985.6 601.6H768c-12.8 0-38.4 12.8-38.4 32L723.2 857.6c0 12.8 6.4 32 25.6 32 12.8 6.4 44.8 0 51.2-6.4l217.6-217.6c6.4-6.4 12.8-25.6 0-44.8-6.4-12.8-19.2-19.2-32-19.2z m-185.6 70.4h102.4l-102.4 102.4v-102.4z"  horiz-adv-x="1024" />

    
    <glyph glyph-name="material-web-add" unicode="&#59956;" d="M985.6 665.6c19.2 70.4 25.6 204.8-96 224-102.4 12.8-224-57.6-288-96-19.2 0-44.8 6.4-64 6.4-166.4 0-268.8-51.2-364.8-172.8-38.4-38.4-70.4-115.2-76.8-198.4 44.8 83.2 185.6 224 332.8 281.6 0 0-224-160-339.2-390.4 0-12.8-6.4-19.2-12.8-32-108.8-268.8-19.2-390.4 64-409.6 76.8-19.2 185.6 19.2 268.8 108.8 147.2-32 288 6.4 339.2 32 102.4 57.6 172.8 153.6 185.6 256h-275.2s-12.8-89.6-160-89.6c-134.4 0-147.2 160-147.2 160h588.8s12.8 172.8-76.8 288c-51.2 64-115.2 121.6-198.4 153.6 25.6 19.2 76.8 51.2 115.2 57.6 76.8 19.2 128 6.4 160-51.2 44.8-76.8-25.6-249.6-25.6-249.6s44.8 51.2 70.4 121.6zM371.2-6.4c-115.2-96-211.2-83.2-249.6-25.6-32 51.2-38.4 140.8 0 262.4 19.2-44.8 44.8-96 89.6-134.4 44.8-51.2 102.4-83.2 160-102.4z m-6.4 499.2s6.4 115.2 128 121.6c108.8 12.8 166.4-38.4 179.2-128l-307.2 6.4z"  horiz-adv-x="1024" />

    
    <glyph glyph-name="material-rss-o" unicode="&#59957;" d="M600.486 52.706H540.25c0 194.74-161.31 353.16-359.544 353.16V466.1c231.484 0 419.78-185.465 419.78-413.395z m-419.78 632.47v-60.235c320.873 0 572.235-251.362 572.235-572.235h60.235c0 354.665-277.805 632.47-632.47 632.47zM361.412 143a90.353 90.353 0 1 1-180.827 0 90.353 90.353 0 0 1 180.827 0.06z m-60.236 0a30.118 30.118 0 1 0-60.235 0 30.118 30.118 0 0 0 60.235 0zM1024-37.647V805.647C1024 855.462 983.462 896 933.647 896H90.353C40.538 896 0 855.462 0 805.647v-843.294C0-87.462 40.538-128 90.353-128h843.294c49.815 0 90.353 40.538 90.353 90.353zM933.647 835.765a30.118 30.118 0 0 0 30.118-30.118v-843.294a30.118 30.118 0 0 0-30.118-30.118H90.353a30.118 30.118 0 0 0-30.118 30.118V805.647a30.118 30.118 0 0 0 30.118 30.118h843.294z"  horiz-adv-x="1024" />

    
    <glyph glyph-name="material-paste" unicode="&#59958;" d="M703.473448 896H384.351035C314.144104 896 256.702069 838.557966 256.702069 768.351035v-574.420344c0-70.206931 57.442034-127.648965 127.648966-127.648966h446.771378c70.206931 0 127.648965 57.442034 127.648966 127.648966V640.702069l-255.297931 255.297931zM607.736724 130.106208h-255.297931c-19.147345 0-31.912241 12.764897-31.912241 31.912241s12.764897 31.912241 31.912241 31.912242h255.297931c19.147345 0 31.912241-12.764897 31.912241-31.912242s-12.764897-31.912241-31.912241-31.912241z m191.473448 127.648965h-446.771379c-19.147345 0-31.912241 12.764897-31.912241 31.912242s12.764897 31.912241 31.912241 31.912241h446.771379c19.147345 0 31.912241-12.764897 31.912241-31.912241s-12.764897-31.912241-31.912241-31.912242z m0 127.648966h-446.771379c-19.147345 0-31.912241 12.764897-31.912241 31.912241s12.764897 31.912241 31.912241 31.912241h446.771379c19.147345 0 31.912241-12.764897 31.912241-31.912241s-12.764897-31.912241-31.912241-31.912241zM703.473448 640.702069V800.263276L863.034655 640.702069H703.473448zM734.619796-42.28372l-56.101721 30.444278c7.595113 14.105211 11.67988 30.125156 11.679881 46.27275h63.824482c0-26.806283-6.637746-53.293443-19.402642-76.717028zM591.780603-127.872351h-48.825729v63.824483h48.825729c19.657941 0 38.613812 5.871852 54.889055 16.913488l35.933184-52.719023a160.454749 160.454749 0 0 0-90.822239-28.018948z m-111.884318 0H353.715283v63.824483h126.181002v-63.824483z m-189.239591 0H208.833707c-18.5091 0-36.762902 3.191224-54.25081 9.382199l21.445026 60.058838c10.594864-3.765644 21.572675-5.680379 32.805784-5.680379h81.822987v-63.760658z m-200.919471 52.208427A161.858888 161.858888 0 0 0 46.591872 34.369484v29.04014h63.824483v-29.04014c0-24.763899 9.318374-48.378958 26.168038-66.63276l-46.84717-43.400648z m20.679132 202.132136h-63.824483V252.649215h63.824483v-126.181003z m0 189.239592h-63.824483V441.95263h63.824483v-126.244826z m0 189.303415h-63.824483v49.272501c0 32.231364 9.573672 63.50536 27.636001 90.311643l52.910496-35.677886c-10.913987-16.211419-16.722014-35.103465-16.722014-54.633757v-49.272501zM162.560957 641.021192l-30.316629 56.165544a161.858888 161.858888 0 0 0 76.589379 19.338819v-63.824483c-16.339068-0.063824-31.912241-3.957118-46.27275-11.67988z"  horiz-adv-x="1024" />

    
    <glyph glyph-name="material-web-o" unicode="&#59959;" d="M1011.894 767.166c8.19 23.031 14.843 48.622 10.236 73.19-3.07 16.89-11.771 32.244-25.59 42.48C981.185 894.096 961.736 897.166 942.799 895.63c-14.33-1.023-28.15-4.606-41.457-9.212-17.402-5.63-33.78-12.796-50.158-20.985-19.96-9.724-39.41-20.984-58.859-32.756-23.031-13.82-45.04-29.174-67.048-44.528-20.984-14.843-41.969-30.709-62.441-46.575-26.103 8.7-52.717 14.33-79.332 17.913-25.079 3.071-50.157 3.583-75.236 2.56-20.473-1.024-40.434-3.583-60.395-7.678-19.449-4.094-38.898-9.213-57.323-16.378-18.425-6.654-36.339-14.843-53.74-24.055-17.402-9.213-33.78-19.45-49.647-31.221-15.866-11.26-30.709-24.055-44.528-37.363-13.819-13.307-27.126-28.15-38.898-42.992-11.772-15.355-23.031-31.733-32.756-48.11-9.724-16.89-18.425-34.804-25.59-52.718-7.166-18.425-13.308-37.362-17.914-56.811-4.607-20.473-7.678-40.434-9.725-60.906-2.047-23.544-2.047-47.087-0.512-70.63 2.048-27.127 6.654-54.253 14.331-80.868 2.047-7.165 4.095-14.33 6.654-20.984-16.89-22.52-33.268-45.552-49.134-68.584a969.037 969.037 0 0 1-42.993-69.095c-10.748-19.449-20.984-38.898-29.173-59.37C8.224-7.212 0.546-29.731 0.035-53.275c-0.512-19.449 4.606-39.922 18.425-54.252C31.767-121.858 51.216-128 70.665-128c13.307 0 26.615 2.56 39.41 5.63 16.378 4.606 32.244 10.748 47.599 17.914 19.449 8.7 37.874 18.937 56.3 29.685 22.008 12.795 44.016 27.126 65 41.457 11.772 7.677 23.032 15.866 34.292 24.055 20.984-13.307 43.504-24.055 66.536-33.268 23.543-9.212 48.11-16.378 72.678-20.984 25.59-5.118 51.693-7.166 77.796-7.677 22.008 0 43.504 1.535 65.512 4.606 20.984 3.07 41.457 8.189 61.93 14.33 19.96 6.143 39.41 13.82 57.835 23.032 18.425 9.213 36.339 19.45 53.229 31.221 16.89 11.772 32.756 24.567 48.11 38.386 14.843 13.82 29.174 29.174 41.457 45.04 12.796 15.866 24.568 33.268 34.804 50.67 10.236 17.913 19.449 36.85 27.126 55.788 2.56 6.653-2.047 13.307-9.213 13.307h-54.764c-4.094 0-7.165-2.047-9.212-5.63-9.725-20.984-21.497-41.457-35.316-59.882-14.842-20.473-32.244-39.41-51.693-56.3-18.937-16.89-39.922-31.22-61.93-43.504-23.032-12.796-47.599-22.52-73.19-29.686-26.102-7.165-53.228-11.26-80.355-12.283-27.126-1.024-54.764 1.023-81.378 6.653-26.103 5.118-52.205 13.82-76.26 24.567-23.032 10.749-44.529 23.544-64.49 38.898-20.472 15.355-38.898 33.268-55.276 52.717-16.378 19.45-30.709 40.946-42.48 63.466-2.56 5.118-5.118 10.748-7.678 15.866 15.867 19.96 31.733 39.921 48.623 59.37 17.402 20.473 35.315 40.946 53.229 61.418 18.937 20.985 37.874 41.97 57.323 62.442 19.96 20.984 39.922 41.969 60.394 62.441 20.473 20.473 40.946 40.946 61.93 60.906a3338.529 3338.529 0 0 0 62.442 57.836c20.472 18.425 40.945 36.338 61.93 54.252 16.89 14.33 34.29 28.662 51.693 42.993 23.031-10.237 45.551-23.032 65.512-38.387 20.473-15.354 39.41-32.756 55.788-52.205a327.54 327.54 0 0 0 42.48-62.441c12.796-23.544 22.52-49.135 29.174-74.725 1.536-6.654 3.071-12.796 4.606-19.45H567.126c-9.724 0-19.449-4.606-26.102-11.771-11.26-12.796-12.284-32.756 1.023-46.575 7.166-7.166 16.89-10.749 27.127-10.749h345.475c19.45 0 34.804 16.89 33.268 36.34-1.023 13.818-3.07 27.637-5.63 41.456-4.606 25.08-11.772 49.647-20.984 73.19-8.701 22.52-19.45 44.528-31.733 65 16.89 22.52 33.268 45.552 48.623 69.096 14.842 22.52 29.173 45.04 41.969 68.583 10.236 18.937 19.96 38.386 28.15 58.347 1.535 3.583 2.559 6.654 3.582 9.725 7.677 21.496-13.307-37.363 0 0z m-820.44-775.401c-15.867-9.725-32.245-18.937-48.623-27.126-11.26-5.63-23.032-10.748-34.803-15.355-7.678-2.559-15.355-5.118-23.032-6.653-4.095-1.024-8.189-1.536-12.795-1.536H69.13c-0.512 4.095 0 8.701 1.023 12.796 1.536 9.212 4.607 17.913 7.678 26.614 7.677 20.473 17.913 40.433 28.661 59.37 12.796 22.52 26.615 44.528 41.457 66.537 7.678 11.26 15.355 22.008 23.032 33.268 22.52-39.41 51.182-74.726 84.961-104.923-15.866-11.771-64.488-42.992-64.488-42.992zM393.62 501.533c-74.725-74.725-143.309-149.962-201.656-221.616-5.118 28.15-7.165 56.3-5.63 84.961 1.536 27.127 6.142 54.253 13.82 79.844 7.677 25.079 17.913 49.134 30.708 72.166 12.284 22.008 27.639 42.48 44.528 61.418 16.89 18.937 36.34 35.827 56.812 50.67 20.473 14.842 42.992 27.126 66.024 36.85 25.08 10.236 51.182 17.914 77.796 22.008 27.638 4.606 55.276 5.63 83.426 3.583a416.72 416.72 0 0 0 35.315-4.606c-65-55.277-134.095-118.23-201.143-185.278-74.213-74.213 67.048 67.048 0 0z m341.893 208.31c22.008 16.377 45.04 32.244 68.071 47.598 17.914 11.772 35.827 22.52 54.253 33.268 13.307 7.165 26.614 14.33 40.433 20.473 9.213 4.094 18.937 7.677 28.662 10.748 5.63 2.047 11.772 3.07 17.913 4.094 3.071 0.512 6.654 0.512 9.725 0.512 0.512-4.094 0-8.7-1.024-12.795-1.535-9.213-4.606-17.914-7.677-26.615-7.677-20.472-17.914-40.433-28.662-59.37-12.795-22.52-26.614-44.528-41.457-66.536a1023.327 1023.327 0 0 0-29.173-41.457c-31.221 36.339-68.584 66.536-111.064 90.08z"  horiz-adv-x="1024" />

    
    <glyph glyph-name="material-folder-o" unicode="&#59960;" d="M506 1.8a33 32.9 0 1 1 66 0 33 32.9 0 1 1-66 0zM864 507.3v4.4c0 70.7-57.3 128-128 128H511.8l-82.5 110.9c-7.4 12.9-18 16.2-27.3 16l-0.1 0.1H192.1c-70.7 0-128-57.3-128-128v-542.1c0-70.7 57.3-128 128-128H407v0.4c18.2 0 33 14.7 33 32.9s-14.8 32.9-33 32.9c-1 0-2.1-0.1-3.1-0.1h-181c-35.3 0-64 28.7-64 64 0 5.5 0.7 10.9 2 16L234 397.1l0.2 0.1c6.7 28.1 31.9 49 62.1 49.1l0.2 0.1h532.2c1.3 0.1 2.5 0.1 3.8 0.1 35.3 0 64-28.7 64-64 0-6.7-1.1-13.3-3-19.4v-0.1L821 83.2c-0.1-0.6-0.3-1.1-0.4-1.7l-1.5-5.8-0.5-0.4c-1.5-3.9-3.4-7.5-5.5-11h-1.3c-2.6-4.7-5.8-9.1-9.5-12.9-11.4-10.6-26.7-17.1-43.4-17.1-1.3 0-2.6 0-3.8 0.1h-80.8c-1 0.1-2.1 0.1-3.1 0.1-18.2 0-33-14.7-33-32.9s14.8-32.9 33-32.9v-0.2H763l0.5 0.4c59.1 0.2 108.7 40.4 123.2 95l0.2 0.2 67.8 285.5c2.9 10.8 4.5 22.1 4.5 33.8-0.1 59.5-40.5 109.5-95.2 123.9z m-571.5 4.9c-62 0-113.7-44.2-125.5-102.7l-0.5-0.4-38-160.3V639c0 35.3 28.7 64 64 64H383l82.7-111.3c6.6-11.4 19.2-17.2 31.5-15.8h238.5c35.2 0 63.8-28.5 64-63.7H292.5z"  horiz-adv-x="1024" />

    
    <glyph glyph-name="material-ppt-o" unicode="&#59961;" d="M922.20992-128H96.60992C39.00992-128 0.60992-89.6 0.60992-32v832C-5.79008 851.2 39.00992 896 96.60992 896H768.60992c12.8 0 38.4-12.8 38.4-38.4s-19.2-38.4-38.4-38.4H96.60992c-12.8 0-25.6-6.4-25.6-25.6v-832c0-12.8 6.4-25.6 25.6-25.6h838.4c12.8 0 25.6 6.4 25.6 25.6V627.2c0 12.8 12.8 32 38.4 32 6.4-6.4 25.6-19.2 25.6-44.8v-659.2c0-38.4-44.8-83.2-102.4-83.2zM979.80992 595.2h-224c-12.8 0-32 12.8-32 32V851.2c0 12.8 6.4 32 19.2 38.4 12.8 6.4 44.8-6.4 51.2-12.8l217.6-230.4c6.4-6.4 12.8-25.6 6.4-38.4-6.4 0-19.2-12.8-38.4-12.8z m-185.6 76.8H896.60992l-102.4 102.4v-102.4zM295.00992 614.4H512.60992c121.6 0 185.6-51.2 185.6-160S634.20992 288 512.60992 288H371.80992v-204.8H295.00992V614.4z m76.8-57.6v-185.6h134.4c38.4 0 70.4 6.4 83.2 25.6 12.8 12.8 32 38.4 32 70.4s-6.4 51.2-32 64c-12.8 12.8-44.8 25.6-83.2 25.6H371.80992z"  horiz-adv-x="1024" />

    
    <glyph glyph-name="add-circle-o" unicode="&#59962;" d="M512 896C226.743 896 0 669.257 0 384s226.743-512 512-512 512 226.743 512 512S797.257 896 512 896z m0-950.857C270.629-54.857 73.143 142.629 73.143 384S270.629 822.857 512 822.857 950.857 625.371 950.857 384 753.371-54.857 512-54.857zM731.429 420.571H548.57V603.43C548.571 625.37 533.943 640 512 640s-36.571-14.629-36.571-36.571V420.57H292.57C270.63 420.571 256 405.943 256 384s14.629-36.571 36.571-36.571H475.43V164.57C475.429 142.63 490.057 128 512 128s36.571 14.629 36.571 36.571V347.43H731.43C753.37 347.429 768 362.057 768 384s-14.629 36.571-36.571 36.571z"  horiz-adv-x="1024" />

    
    <glyph glyph-name="adsorption" unicode="&#59963;" d="M337.066667 797.866667c0 51.2-38.4 85.333333-85.333334 85.333333h-85.333333c-51.2 0-85.333333-38.4-85.333333-85.333333v-174.933334H341.333333V797.866667z m-42.666667-128H119.466667v128c0 25.6 17.066667 42.666667 42.666666 42.666666h85.333334c25.6 0 42.666667-17.066667 42.666666-42.666666v-128zM857.6 887.466667h-85.333333c-51.2 0-85.333333-38.4-85.333334-85.333334v-174.933333h260.266667v170.666667c0 51.2-38.4 89.6-89.6 89.6z m46.933333-217.6h-174.933333v128c0 25.6 17.066667 42.666667 42.666667 42.666666h85.333333c25.6 0 42.666667-17.066667 42.666667-42.666666l4.266666-128z m-217.6-354.133334c0-98.133333-76.8-174.933333-174.933333-174.933333h-17.066667c-89.6 8.533333-157.866667 89.6-157.866666 183.466667V576H76.8v-247.466667c0-234.666667 179.2-435.2 405.333333-448h25.6c243.2 0 439.466667 196.266667 439.466667 435.2V576h-260.266667v-260.266667z m42.666667 217.6h174.933333v-217.6c0-226.133333-192-405.333333-418.133333-392.533333-209.066667 12.8-366.933333 196.266667-366.933333 405.333333V533.333333h174.933333v-209.066666c0-110.933333 81.066667-213.333333 196.266667-226.133334 132.266667-12.8 238.933333 89.6 238.933333 217.6V533.333333zM490.666667-76.8C281.6-64 128 119.466667 128 324.266667V524.8h170.666667v-204.8c0-110.933333 81.066667-209.066667 192-221.866667 128-12.8 238.933333 89.6 238.933333 213.333334v213.333333h170.666667v-213.333333c4.266667-226.133333-187.733333-401.066667-409.6-388.266667zM298.666667 665.6H128v128c0 25.6 17.066667 42.666667 42.666667 42.666667h85.333333c25.6 0 42.666667-17.066667 42.666667-42.666667v-128zM904.533333 665.6h-170.666666v128c0 25.6 17.066667 42.666667 42.666666 42.666667h85.333334c25.6 0 42.666667-17.066667 42.666666-42.666667v-128z"  horiz-adv-x="1024" />

    
    <glyph glyph-name="anchor-o" unicode="&#59964;" d="M1015.466667 507.733333c-8.533333 25.6-34.133333 46.933333-72.533334 64l-213.333333 59.733334c-46.933333 72.533333-93.866667 140.8-136.533333 213.333333C571.733333 874.666667 541.866667 891.733333 516.266667 891.733333c-21.333333 0-51.2-8.533333-76.8-51.2L315.733333 644.266667c-55.466667-12.8-106.666667-29.866667-157.866666-46.933334l-81.066667-21.333333C42.666667 563.2 21.333333 541.866667 8.533333 516.266667c-8.533333-25.6 0-55.466667 21.333334-93.866667v-4.266667C76.8 358.4 123.733333 298.666667 170.666667 243.2c-4.266667-85.333333-4.266667-170.666667-8.533334-256-4.266667-42.666667 4.266667-68.266667 17.066667-89.6 12.8-12.8 29.866667-21.333333 46.933333-21.333333 17.066667 0 34.133333 4.266667 59.733334 12.8l204.8 85.333333c76.8-29.866667 153.6-59.733333 234.666666-85.333333 17.066667-4.266667 29.866667-8.533333 42.666667-8.533334 29.866667 0 76.8 12.8 81.066667 102.4v4.266667c-4.266667 76.8-8.533333 149.333333-12.8 226.133333l149.333333 204.8c29.866667 34.133333 38.4 64 29.866667 89.6z m-64-59.733333l-157.866667-209.066667c-4.266667-4.266667-4.266667-12.8-4.266667-17.066666v-12.8c4.266667-76.8 8.533333-149.333333 12.8-226.133334-4.266667-51.2-21.333333-51.2-34.133333-51.2-8.533333 0-17.066667 0-25.6 4.266667-81.066667 29.866667-162.133333 59.733333-238.933333 89.6h-17.066667l-213.333333-85.333333c-17.066667-8.533333-34.133333-8.533333-42.666667-8.533334-8.533333 0-12.8 4.266667-12.8 4.266667-4.266667 0-8.533333 12.8-4.266667 46.933333 4.266667 89.6 4.266667 174.933333 8.533334 264.533334 0 4.266667 0 12.8-4.266667 17.066666-46.933333 59.733333-98.133333 123.733333-145.066667 183.466667-17.066667 25.6-21.333333 42.666667-17.066666 51.2 4.266667 12.8 21.333333 21.333333 38.4 25.6L170.666667 550.4l166.4 51.2c4.266667 0 8.533333 4.266667 12.8 8.533333L473.6 810.666667c8.533333 12.8 21.333333 29.866667 38.4 29.866666 12.8 0 25.6-8.533333 38.4-25.6C597.333333 742.4 644.266667 669.866667 695.466667 597.333333c4.266667-4.266667 8.533333-8.533333 12.8-8.533333l221.866666-59.733333c21.333333-8.533333 38.4-17.066667 38.4-29.866667 4.266667-17.066667-4.266667-34.133333-17.066666-51.2z"  horiz-adv-x="1024" />

    
    <glyph glyph-name="image" unicode="&#59965;" d="M896 896H128C57.6 896 0 838.4 0 768v-768c0-70.4 57.6-128 128-128h768c70.4 0 128 57.6 128 128V768c0 70.4-57.6 128-128 128zM256 768c70.4 0 128-57.6 128-128s-57.6-128-128-128-128 57.6-128 128 57.6 128 128 128zM64-64V57.6l115.2 153.6c44.8 57.6 115.2 57.6 160 6.4l224-275.2H64v-6.4z m896 0H640L512 102.4l211.2 268.8c44.8 57.6 115.2 57.6 160 0l83.2-108.8V-64H960z"  horiz-adv-x="1024" />

    
    <glyph glyph-name="publish-right-o" unicode="&#59966;" d="M233.244444-42.666667c0 17.066667 5.688889 39.822222 17.066667 51.2l403.911111 341.333334c5.688889 11.377778 11.377778 17.066667 11.377778 39.822222 0 5.688889-5.688889 22.755556-11.377778 28.444444L256 782.222222C233.244444 804.977778 233.244444 844.8 250.311111 867.555556 273.066667 896 312.888889 896 335.644444 878.933333l398.222223-364.088889c39.822222-28.444444 56.888889-79.644444 56.888889-130.844444s-22.755556-91.022222-62.577778-130.844444l-398.222222-341.333334c-22.755556-22.755556-62.577778-17.066667-85.333334 5.688889-5.688889 11.377778-11.377778 28.444444-11.377778 39.822222z"  horiz-adv-x="1024" />

    
    <glyph glyph-name="adsorption-o" unicode="&#59967;" d="M337.066667 797.866667c0 51.2-38.4 85.333333-85.333334 85.333333h-85.333333c-51.2 0-85.333333-38.4-85.333333-85.333333v-174.933334H341.333333V797.866667z m-42.666667-128H119.466667v128c0 25.6 17.066667 42.666667 42.666666 42.666666h85.333334c25.6 0 42.666667-17.066667 42.666666-42.666666v-128zM857.6 887.466667h-85.333333c-51.2 0-85.333333-38.4-85.333334-85.333334v-174.933333h260.266667v170.666667c0 51.2-38.4 89.6-89.6 89.6z m46.933333-217.6h-174.933333v128c0 25.6 17.066667 42.666667 42.666667 42.666666h85.333333c25.6 0 42.666667-17.066667 42.666667-42.666666l4.266666-128z m-217.6-354.133334c0-98.133333-76.8-174.933333-174.933333-174.933333h-17.066667c-89.6 8.533333-157.866667 89.6-157.866666 183.466667V576H76.8v-247.466667c0-234.666667 179.2-435.2 405.333333-448h25.6c243.2 0 439.466667 196.266667 439.466667 435.2V576h-260.266667v-260.266667z m42.666667 217.6h174.933333v-217.6c0-226.133333-192-405.333333-418.133333-392.533333-209.066667 12.8-366.933333 196.266667-366.933333 405.333333V533.333333h174.933333v-209.066666c0-110.933333 81.066667-213.333333 196.266667-226.133334 132.266667-12.8 238.933333 89.6 238.933333 217.6V533.333333z"  horiz-adv-x="1024" />

    
    </font>
</defs>
</svg>
